<?xml version="1.0" encoding="UTF-8"?><svg id="a" xmlns="http://www.w3.org/2000/svg" viewBox="0 0 126 146.88"><defs><style>.b{fill:#ab6572;}</style></defs><polygon class="b" points="120.04 67.46 110.03 68.35 120 69.63 109.97 70.13 119.88 71.79 109.83 71.9 119.67 73.94 109.62 73.66 119.37 76.09 109.35 75.41 118.99 78.22 109 77.15 118.53 80.34 108.59 78.87 117.98 82.43 108.11 80.57 117.36 84.51 107.56 82.26 116.65 86.55 106.95 83.92 115.86 88.57 106.27 85.56 114.99 90.56 105.53 87.16 114.04 92.51 104.72 88.74 113.02 94.42 103.85 90.29 111.92 96.28 102.93 91.8 110.75 98.11 101.94 93.27 109.51 99.88 100.9 94.71 108.2 101.6 99.8 96.1 106.83 103.28 98.65 97.45 105.39 104.89 97.44 98.75 103.89 106.45 96.19 100 102.33 107.95 94.88 101.21 100.71 109.39 93.54 102.36 99.04 110.76 92.14 103.46 97.32 112.07 90.71 104.5 95.54 113.31 89.24 105.48 93.72 114.48 87.73 106.41 91.85 115.57 86.18 107.28 89.95 116.6 84.61 108.08 88 117.54 83 108.83 86.01 118.41 81.36 109.5 84 119.2 79.7 110.12 81.95 119.91 78.02 110.66 79.88 120.54 76.31 111.14 77.78 121.08 74.59 111.56 75.67 121.55 72.85 111.9 73.53 121.92 71.1 112.18 71.39 122.22 69.34 112.38 69.24 122.43 67.57 112.52 67.07 122.55 65.8 112.59 64.91 122.6 64.02 112.59 62.75 122.55 62.25 112.52 60.59 122.43 60.48 112.38 58.43 122.22 58.72 112.17 56.29 121.92 56.97 111.9 54.15 121.55 55.23 111.56 52.04 121.08 53.5 111.14 49.94 120.54 51.8 110.66 47.87 119.91 50.12 110.12 45.82 119.2 48.45 109.5 43.8 118.41 46.82 108.82 41.82 117.54 45.21 108.08 39.87 116.59 43.63 107.28 37.96 115.57 42.08 106.41 36.09 114.47 40.57 105.48 34.27 113.3 39.1 104.49 32.49 112.06 37.67 103.45 30.77 110.76 36.28 102.35 29.1 109.38 34.93 101.2 27.48 107.94 33.63 99.99 25.92 106.44 32.37 98.74 24.42 104.88 31.17 97.44 22.98 103.27 30.02 96.09 21.61 101.59 28.92 94.7 20.3 99.87 27.88 93.26 19.06 98.1 26.89 91.79 17.9 96.27 25.96 90.28 16.8 94.41 25.1 88.74 15.78 92.5 24.29 87.16 14.83 90.55 23.55 85.55 13.96 88.57 22.87 83.92 13.17 86.55 22.26 82.26 12.46 84.5 21.71 80.57 11.84 82.43 21.23 78.87 11.29 80.34 20.82 77.15 10.83 78.22 20.47 75.41 10.45 76.09 20.2 73.66 10.16 73.94 19.99 71.9 9.95 71.79 19.86 70.13 9.82 69.63 19.79 68.35 9.78 67.46 19.79 66.57 9.82 65.3 19.86 64.8 9.95 63.14 19.99 63.03 10.16 60.99 20.2 61.27 10.45 58.84 20.47 59.52 10.83 56.71 20.82 57.78 11.29 54.59 21.23 56.06 11.84 52.49 21.71 54.35 12.46 50.42 22.26 52.67 13.17 48.37 22.87 51.01 13.96 46.36 23.55 49.37 14.83 44.37 24.29 47.76 15.78 42.42 25.1 46.18 16.8 40.51 25.97 44.64 17.9 38.64 26.89 43.13 19.07 36.82 27.88 41.65 20.31 35.05 28.92 40.22 21.62 33.32 30.02 38.83 22.99 31.65 31.18 37.48 24.43 30.03 32.38 36.18 25.93 28.47 33.63 34.93 27.49 26.98 34.94 33.72 29.11 25.54 36.28 32.57 30.78 24.16 37.68 31.47 32.5 22.86 39.11 30.43 34.28 21.62 40.58 29.44 36.1 20.45 42.09 28.52 37.97 19.35 43.64 27.65 39.87 18.33 45.21 26.84 41.82 17.39 46.82 26.1 43.81 16.52 48.46 25.42 45.82 15.73 50.12 24.81 47.87 15.02 51.8 24.26 49.94 14.39 53.51 23.78 52.04 13.84 55.23 23.37 54.15 13.38 56.97 23.03 56.29 13 58.72 22.75 58.43 12.71 60.48 22.55 60.59 12.5 62.25 22.41 62.75 12.37 64.02 22.34 64.91 12.33 65.8 22.34 67.07 12.37 67.57 22.41 69.23 12.5 69.34 22.55 71.39 12.71 71.1 22.75 73.53 13 72.86 23.03 75.67 13.38 74.59 23.37 77.78 13.84 76.32 23.78 79.88 14.39 78.02 24.26 81.95 15.02 79.7 24.81 84 15.73 81.37 25.42 86.02 16.52 83 26.1 88 17.39 84.61 26.85 89.95 18.34 86.19 27.65 91.86 19.36 87.74 28.52 93.73 20.46 89.25 29.45 95.55 21.62 90.72 30.43 97.33 22.86 92.15 31.48 99.05 24.17 93.54 32.58 100.72 25.55 94.89 33.73 102.34 26.98 96.19 34.93 103.9 28.48 97.45 36.19 105.4 30.04 98.65 37.49 106.84 31.66 99.8 38.84 108.21 33.33 100.9 40.23 109.52 35.06 101.95 41.66 110.76 36.83 102.93 43.14 111.92 38.65 103.86 44.64 113.02 40.52 104.73 46.19 114.04 42.43 105.53 47.77 114.99 44.38 106.27 49.37 115.86 46.36 106.95 51.01 116.65 48.38 107.56 52.67 117.36 50.42 108.11 54.36 117.99 52.5 108.59 56.06 118.53 54.59 109 57.78 118.99 56.71 109.35 59.52 119.37 58.84 109.62 61.27 119.67 60.98 109.83 63.03 119.88 63.14 109.97 64.8 120 65.3 110.03 66.57 120.04 67.46"/></svg>