<?xml version="1.0" encoding="UTF-8"?><svg id="a" xmlns="http://www.w3.org/2000/svg" viewBox="0 0 115.92 170.24"><defs><style>.b{fill:#28353e;}</style></defs><polygon class="b" points="89.8 85 104.49 82.3 88.38 79.34 103.64 73.38 89.4 73.51 101.7 66.34 86.96 68.78 98.45 59.23 86.35 63.38 95.01 53.96 82.27 60.33 90.17 48.48 78.01 57.16 84.12 43.52 74.39 53.26 78.11 40.01 70.5 50.3 72.28 37.62 65.41 50.1 65.19 35.86 60.1 49.91 57.4 35.21 54.44 51.32 48.48 36.06 48.61 50.31 41.44 38 43.88 52.74 34.33 41.25 38.48 53.35 29.06 44.69 35.44 57.43 23.58 49.53 32.26 61.7 18.63 55.58 28.37 65.31 15.11 61.59 25.4 69.2 12.72 67.42 25.2 74.29 10.96 74.51 25.01 79.6 10.31 82.3 26.42 85.26 11.16 91.22 25.41 91.09 13.1 98.26 27.84 95.82 16.35 105.37 28.45 101.22 19.79 110.64 32.53 104.27 24.63 116.12 36.8 107.44 30.68 121.08 40.41 111.34 36.69 124.59 44.3 114.31 42.52 126.98 49.39 114.5 49.61 128.74 54.7 114.69 57.4 129.39 60.36 113.28 66.32 128.54 66.19 114.29 73.36 126.6 70.92 111.86 80.47 123.35 76.32 111.25 85.74 119.91 79.37 107.17 91.22 115.07 82.54 102.9 96.18 109.02 86.44 99.29 99.69 103.01 89.41 95.4 102.08 97.18 89.6 90.31 103.84 90.09 89.8 85"/></svg>