<?xml version="1.0" encoding="UTF-8"?><svg id="a" xmlns="http://www.w3.org/2000/svg" viewBox="0 0 115.92 170.24"><defs><style>.b{fill:none;stroke:#fffaea;stroke-miterlimit:10;}</style></defs><polygon class="b" points="96.08 85.25 110.78 82.55 94.66 79.59 109.92 73.63 95.68 73.76 107.99 66.59 93.25 69.03 104.74 59.47 92.63 63.63 101.29 54.2 88.55 60.58 96.46 48.73 84.29 57.4 90.41 43.77 80.67 53.51 84.39 40.25 76.78 50.54 78.57 37.87 71.7 50.35 71.48 36.11 66.38 50.15 63.69 35.46 60.73 51.57 54.77 36.31 54.89 50.55 47.72 38.24 50.17 52.99 40.61 41.5 44.76 53.6 35.34 44.94 41.72 57.68 29.87 49.78 38.54 61.94 24.91 55.83 34.65 65.56 21.39 61.84 31.68 69.45 19.01 67.66 31.49 74.53 17.24 74.75 31.29 79.85 16.59 82.55 32.71 85.51 17.45 91.46 31.69 91.34 19.38 98.51 34.12 96.07 22.63 105.62 34.74 101.47 26.08 110.89 38.82 104.51 30.91 116.37 43.08 107.69 36.96 121.32 46.7 111.58 42.98 124.84 50.59 114.55 48.8 127.22 55.67 114.75 55.89 128.99 60.99 114.94 63.69 129.64 66.64 113.52 72.6 128.79 72.48 114.54 79.65 126.85 77.2 112.11 86.76 123.6 82.61 111.49 92.03 120.15 85.65 107.42 97.5 115.32 88.83 103.15 102.46 109.27 92.72 99.53 105.98 103.26 95.69 95.65 108.36 97.43 95.88 90.56 110.13 90.34 96.08 85.25"/></svg>