<?xml version="1.0" encoding="UTF-8"?><svg id="a" xmlns="http://www.w3.org/2000/svg" viewBox="0 0 128.88 146.88"><defs><style>.b{fill:none;stroke:#ab6572;stroke-miterlimit:10;}</style></defs><path class="b" d="M8.03,72.73c11.05,0,25.13-37.38,36.18-37.38s25.44,40.65,35.94,40.65,22.63-40.65,33.26-40.65"/><path class="b" d="M8.03,84.47c11.05,0,25.13-37.38,36.18-37.38s25.44,40.65,35.94,40.65,22.63-40.65,33.26-40.65"/><path class="b" d="M8.03,95.87c11.05,0,25.13-37.38,36.18-37.38s25.44,40.65,35.94,40.65,22.63-40.65,33.26-40.65"/><path class="b" d="M10.76,107.48c11.05,0,25.13-37.38,36.18-37.38s25.44,40.65,35.94,40.65,22.63-40.65,33.26-40.65"/></svg>