<?xml version="1.0" encoding="UTF-8"?><svg id="a" xmlns="http://www.w3.org/2000/svg" viewBox="0 0 115.92 146.88"><defs><style>.b{fill:#28353e;font-family:BNCreekLaneRegular, BN Creek Lane;font-size:8.72px;}.c{fill:none;fill-rule:evenodd;stroke:#28353e;stroke-miterlimit:10;}</style></defs><polygon class="c" points="69.68 22.71 73.96 34.05 85.04 29.26 85.04 41.1 96.62 40.34 92.6 51.42 103.93 54.7 96.62 63.76 106.19 70.81 95.87 77.11 102.42 87.18 90.58 89.45 93.35 101.03 81.77 98.77 80.51 110.6 70.18 104.56 65.15 115.39 57.34 106.32 48.53 114.38 43.99 103.3 33.16 107.83 33.16 96 21.33 96.75 25.36 85.92 14.03 82.65 21.58 73.58 12.01 66.53 22.34 59.98 15.79 49.91 27.62 47.9 24.85 36.31 36.44 38.33 37.7 26.74 47.77 32.54 53.06 21.96 60.87 30.77 69.68 22.71"/><g><text class="b" transform="translate(-43.07 37.08) rotate(55.98)"><tspan x="0" y="0">N</tspan></text><text class="b" transform="translate(-37.02 46.32) rotate(66.82)"><tspan x="0" y="0">U</tspan></text><text class="b" transform="translate(-32.9 56.28) rotate(77.54)"><tspan x="0" y="0">E</tspan></text><text class="b" transform="translate(-30.75 66.56) rotate(87.56)"><tspan x="0" y="0">V</tspan></text><text class="b" transform="translate(-30.36 76.24) rotate(97.62)"><tspan x="0" y="0">O</tspan></text><text class="b" transform="translate(-32.19 87.56) rotate(106.44)"><tspan x="0" y="0"> </tspan></text><text class="b" transform="translate(-33.96 93.7) rotate(114.89)"><tspan x="0" y="0">C</tspan></text><text class="b" transform="translate(-38.49 103.23) rotate(125.78)"><tspan x="0" y="0">O</tspan></text><text class="b" transform="translate(-45.29 112.4) rotate(136.7)"><tspan x="0" y="0">N</tspan></text><text class="b" transform="translate(-53.35 119.81) rotate(147.49)"><tspan x="0" y="0">T</tspan></text><text class="b" transform="translate(-62.52 125.5) rotate(158.23)"><tspan x="0" y="0">E</tspan></text><text class="b" transform="translate(-72.65 129.4) rotate(168.95)"><tspan x="0" y="0">N</tspan></text><text class="b" transform="translate(-83.57 131.21) rotate(176.66)"><tspan x="0" y="0">I</tspan></text><text class="b" transform="translate(-88.21 131.59) rotate(-175.53)"><tspan x="0" y="0">D</tspan></text><text class="b" transform="translate(-99.34 130.59) rotate(-164.35)"><tspan x="0" y="0">O</tspan></text><text class="b" transform="translate(-110.3 127.19) rotate(-155.47)"><tspan x="0" y="0"> </tspan></text><text class="b" transform="translate(-116.11 124.41) rotate(-149.87)"><tspan x="0" y="0">/</tspan></text><text class="b" transform="translate(-120.27 121.92) rotate(-145.08)"><tspan x="0" y="0">/</tspan></text><text class="b" transform="translate(-124.15 119.09) rotate(-141.25)"><tspan x="0" y="0">/</tspan></text><text class="b" transform="translate(-127.87 116) rotate(-134.89)"><tspan x="0" y="0"> </tspan></text><text class="b" transform="translate(-132.43 111.51) rotate(-126.23)"><tspan x="0" y="0">N</tspan></text><text class="b" transform="translate(-138.83 102.51) rotate(-115.38)"><tspan x="0" y="0">U</tspan></text><text class="b" transform="translate(-143.33 92.72) rotate(-104.65)"><tspan x="0" y="0">E</tspan></text><text class="b" transform="translate(-145.86 82.54) rotate(-94.64)"><tspan x="0" y="0">V</tspan></text><text class="b" transform="translate(-146.63 72.9) rotate(-84.6)"><tspan x="0" y="0">O</tspan></text><text class="b" transform="translate(-145.23 61.49) rotate(-75.77)"><tspan x="0" y="0"> </tspan></text><text class="b" transform="translate(-143.7 55.3) rotate(-67.33)"><tspan x="0" y="0">C</tspan></text><text class="b" transform="translate(-139.53 45.57) rotate(-56.39)"><tspan x="0" y="0">O</tspan></text><text class="b" transform="translate(-133.1 36.18) rotate(-45.52)"><tspan x="0" y="0">N</tspan></text><text class="b" transform="translate(-125.32 28.46) rotate(-34.73)"><tspan x="0" y="0">T</tspan></text><text class="b" transform="translate(-116.39 22.42) rotate(-23.98)"><tspan x="0" y="0">E</tspan></text><text class="b" transform="translate(-106.43 18.13) rotate(-13.25)"><tspan x="0" y="0">N</tspan></text><text class="b" transform="translate(-95.58 15.91) rotate(-5.54)"><tspan x="0" y="0">I</tspan></text><text class="b" transform="translate(-90.98 15.34) rotate(2.24)"><tspan x="0" y="0">D</tspan></text><text class="b" transform="translate(-79.8 15.91) rotate(13.43)"><tspan x="0" y="0">O</tspan></text><text class="b" transform="translate(-68.7 18.89) rotate(22.31)"><tspan x="0" y="0"> </tspan></text><text class="b" transform="translate(-62.8 21.44) rotate(27.91)"><tspan x="0" y="0">/</tspan></text><text class="b" transform="translate(-58.56 23.76) rotate(32.7)"><tspan x="0" y="0">/</tspan></text><text class="b" transform="translate(-54.52 26.43) rotate(37.46)"><tspan x="0" y="0">/</tspan></text></g></svg>