<?xml version="1.0" encoding="UTF-8"?><svg id="a" xmlns="http://www.w3.org/2000/svg" viewBox="0 0 115.92 170.24"><defs><style>.b{fill:#fffaea;}</style></defs><polygon class="b" points="97.25 85.25 111.94 82.55 95.83 79.59 111.09 73.63 96.85 73.76 109.16 66.59 94.42 69.03 105.9 59.47 93.8 63.63 102.46 54.2 89.72 60.58 97.62 48.73 85.46 57.4 91.57 43.77 81.84 53.51 85.56 40.25 77.95 50.54 79.74 37.87 72.87 50.35 72.65 36.11 67.55 50.15 64.85 35.46 61.89 51.57 55.94 36.31 56.06 50.55 48.89 38.24 51.33 52.99 41.78 41.5 45.93 53.6 36.51 44.94 42.89 57.68 31.04 49.78 39.71 61.94 26.08 55.83 35.82 65.56 22.56 61.84 32.85 69.45 20.18 67.66 32.65 74.53 18.41 74.75 32.46 79.85 17.76 82.55 33.88 85.51 18.61 91.46 32.86 91.34 20.55 98.51 35.29 96.07 23.8 105.62 35.91 101.47 27.25 110.89 39.98 104.51 32.08 116.37 44.25 107.69 38.13 121.32 47.87 111.58 44.14 124.84 51.76 114.55 49.97 127.22 56.84 114.75 57.06 128.99 62.15 114.94 64.85 129.64 67.81 113.52 73.77 128.79 73.64 114.54 80.81 126.85 78.37 112.11 87.93 123.6 83.77 111.49 93.2 120.15 86.82 107.42 98.67 115.32 90 103.15 103.63 109.27 93.89 99.53 107.15 103.26 96.86 95.65 109.53 97.43 97.05 90.56 111.3 90.34 97.25 85.25"/></svg>