<?xml version="1.0" encoding="utf-8"?>
<!-- Generator: Adobe Illustrator 23.0.2, SVG Export Plug-In . SVG Version: 6.00 Build 0)  -->
<svg version="1.1" id="Layer_1" xmlns="http://www.w3.org/2000/svg" xmlns:xlink="http://www.w3.org/1999/xlink" x="0px" y="0px"
	 viewBox="0 0 55 46" style="enable-background:new 0 0 55 46;" xml:space="preserve">
<style type="text/css">
	.st0{fill:#28363F;}
</style>
<g>
	<path class="st0" d="M42.2,22.2c1.7-0.8,2.5-2.1,2.6-3.9c0.2-3.7-1-6.8-3.6-9.4c-1.4-1.4-3.1-1.2-4.3,0.4c-0.5,0.7-0.5,1.2,0.2,1.8
		c1.1,0.9,2.2,1.9,3,3.2C41.6,16.7,42.1,19,42.2,22.2L42.2,22.2z"/>
	<path class="st0" d="M1.9,23.2c-11,30.6,35.1,29.3,50.4,2.3C66.9-6.4,10.7-9.6,1.9,23.2z M46.3,22.2C44.5,26,41,27,37.4,24.9
		c-4.2-2.5-8.2-10.7-4.7-16.7c1-1.8,2.5-3.1,4.6-3.4c1.8-0.3,3.1,0.3,4.9,1.7c1.5,1.1,2.5,2.3,3.4,3.7c0.8,1.2,0.9,2.3,1.1,3.7
		C47.3,17,47.5,19.7,46.3,22.2L46.3,22.2z"/>
</g>
</svg>
