<?xml version="1.0" encoding="utf-8"?>
<!-- Generator: Adobe Illustrator 23.0.2, SVG Export Plug-In . SVG Version: 6.00 Build 0)  -->
<svg version="1.1" id="Layer_1" xmlns="http://www.w3.org/2000/svg" xmlns:xlink="http://www.w3.org/1999/xlink" x="0px" y="0px"
	 viewBox="0 0 150 150" style="enable-background:new 0 0 150 150;" xml:space="preserve">
<style type="text/css">
	.st0{fill:none;stroke:#000000;stroke-miterlimit:10;}
</style>
<g>
	<path d="M51.7,22.1c-0.6,0.3-1.2,0.5-1.8,0.5c-0.5,0.1-1.1,0-1.6-0.3c-0.5-0.2-1-0.7-1.5-1.3c-0.5-0.7-1-1.6-1.5-2.7
		c-0.5-1.1-0.8-2-1-2.8c-0.2-0.8-0.2-1.5,0-2s0.4-1,0.8-1.4c0.4-0.4,1-0.7,1.6-1c0.4-0.2,0.7-0.3,1.1-0.4c0.4-0.1,0.8-0.3,1.2-0.3
		c0.4-0.1,0.7-0.2,1.1-0.2l0.5,1.1c-0.2,0-0.4,0.1-0.8,0.2c-0.3,0.1-0.7,0.2-1.1,0.4c-0.4,0.1-0.8,0.3-1.2,0.5
		c-0.5,0.2-0.9,0.5-1.2,0.7c-0.3,0.3-0.5,0.6-0.6,1c-0.1,0.4,0,0.9,0.1,1.5c0.1,0.6,0.4,1.3,0.8,2.2c0.4,0.9,0.8,1.6,1.1,2.1
		c0.3,0.5,0.7,0.9,1,1.1c0.3,0.2,0.7,0.3,1.1,0.2c0.4,0,0.8-0.2,1.4-0.4c0.7-0.3,1.3-0.6,1.8-0.9s0.8-0.5,1.1-0.6l0.5,1.1
		c-0.3,0.2-0.6,0.4-0.9,0.6c-0.3,0.2-0.7,0.4-1,0.6C52.5,21.8,52.1,21.9,51.7,22.1z"/>
	<path d="M56.2,20.1L53,8.3l1.6-0.4l1.2,4.4c0.3-0.4,0.7-0.7,1.1-1.1c0.5-0.4,1-0.6,1.5-0.8c0.6-0.2,1.1-0.2,1.6,0
		c0.4,0.1,0.8,0.4,1.1,0.8c0.3,0.4,0.5,0.8,0.7,1.4l1.5,5.6l-1.6,0.4l-1.5-5.4c-0.1-0.3-0.2-0.6-0.4-0.8c-0.2-0.2-0.4-0.3-0.7-0.4
		c-0.3-0.1-0.6-0.1-0.9,0c-0.3,0.1-0.6,0.2-0.8,0.3s-0.5,0.3-0.7,0.5c-0.2,0.2-0.4,0.4-0.6,0.6l1.7,6.3L56.2,20.1z"/>
	<path d="M68.4,17.6c-0.9,0.1-1.6,0.1-2.2-0.1s-1-0.6-1.3-1.2c-0.3-0.6-0.5-1.5-0.7-2.6c-0.1-1.1-0.1-2,0-2.7c0.2-0.7,0.5-1.1,1-1.5
		c0.5-0.3,1.2-0.5,2.1-0.6c0.8-0.1,1.4-0.1,1.9,0c0.5,0.1,0.9,0.4,1.2,0.8c0.3,0.4,0.5,1,0.5,1.7c0.1,0.5,0,0.9-0.2,1.3
		c-0.2,0.3-0.4,0.6-0.8,0.8c-0.4,0.2-0.8,0.3-1.3,0.4l-2.8,0.3c0.1,0.6,0.2,1.1,0.4,1.5c0.2,0.4,0.4,0.6,0.8,0.7
		c0.4,0.1,0.9,0.1,1.6,0.1l2.7-0.3l0.1,1c-0.5,0.1-0.9,0.2-1.4,0.3C69.6,17.4,69,17.5,68.4,17.6z M65.8,13.1l2.7-0.3
		c0.4,0,0.7-0.2,0.9-0.3c0.2-0.2,0.3-0.5,0.2-0.9c0-0.4-0.1-0.8-0.3-1c-0.2-0.2-0.4-0.4-0.7-0.5C68.3,10,68,10,67.5,10
		c-0.5,0.1-0.9,0.2-1.2,0.4c-0.3,0.2-0.5,0.5-0.5,0.9C65.7,11.8,65.7,12.3,65.8,13.1z"/>
	<path d="M76.5,17.2c-0.5,0-1-0.1-1.4-0.2c-0.4-0.1-0.8-0.4-1.1-0.7c-0.3-0.3-0.5-0.8-0.7-1.3c-0.2-0.6-0.2-1.3-0.2-2.2
		c0-0.9,0.1-1.6,0.3-2.2c0.2-0.6,0.4-1,0.7-1.3s0.7-0.5,1.1-0.7c0.4-0.1,0.9-0.2,1.5-0.2c0.5,0,0.9,0,1.4,0.1s1,0.1,1.5,0.2l0,0.9
		l-2.4,0c-0.5,0-1,0.1-1.3,0.2c-0.4,0.2-0.6,0.5-0.8,0.9c-0.2,0.5-0.3,1.1-0.3,2c0,0.8,0.1,1.5,0.2,2s0.4,0.8,0.8,0.9
		c0.3,0.2,0.8,0.3,1.3,0.3l2.5,0l0,0.9c-0.2,0.1-0.5,0.1-0.9,0.2c-0.3,0-0.7,0.1-1.1,0.1C77.2,17.2,76.9,17.3,76.5,17.2z"/>
	<path d="M80.8,17.3l1.9-12.1l1.6,0.2l-1.1,6.9l1.2,0.2l2.9-2.9l1.7,0.3l-3.5,3.5l2.4,5l-1.7-0.3l-2-4.2L83,13.8l-0.6,3.8L80.8,17.3
		z"/>
	<path d="M95.4,20.8c-0.5-0.2-1-0.4-1.3-0.7c-0.3-0.3-0.5-0.7-0.5-1.1s0.1-1,0.3-1.7l1.5-4.1l-1.3-0.5l0.4-1l1.4,0.2l1-2.2l1.2,0.4
		l-0.8,2.3l2.2,0.8l-0.4,1.2L97,13.7l-1.5,4.2c-0.1,0.3-0.2,0.6-0.2,0.8c0,0.2,0,0.4,0.1,0.5c0.1,0.1,0.2,0.3,0.3,0.3
		s0.2,0.2,0.3,0.2l1,0.4l-0.4,1.1L95.4,20.8z"/>
	<path d="M98,21.7l5.6-10.9l1.4,0.7l-2.1,4.1c0.5-0.1,1-0.1,1.6,0c0.6,0,1.1,0.2,1.6,0.5c0.6,0.3,0.9,0.6,1.2,1
		c0.2,0.4,0.3,0.8,0.3,1.3c0,0.5-0.2,1-0.4,1.5l-2.6,5.2l-1.4-0.7l2.5-5c0.2-0.3,0.2-0.6,0.2-0.9c0-0.3-0.1-0.5-0.2-0.8
		c-0.2-0.2-0.4-0.4-0.7-0.6c-0.3-0.1-0.6-0.3-0.8-0.3c-0.3-0.1-0.5-0.1-0.8-0.1c-0.3,0-0.6,0-0.9,0l-3,5.8L98,21.7z"/>
	<path d="M106,26.1l4.7-7.2l1.3,0.9l-4.7,7.2L106,26.1z M111.7,17.9c-0.2-0.1-0.2-0.2-0.1-0.4l0.7-1.1c0.1-0.2,0.2-0.2,0.4-0.1
		l1,0.7c0.1,0,0.1,0.1,0.1,0.2c0,0.1,0,0.1-0.1,0.2l-0.7,1.1c-0.1,0.2-0.2,0.2-0.4,0.1L111.7,17.9z"/>
	<path d="M111.3,30.1c-0.2-0.1-0.4-0.3-0.6-0.5s-0.5-0.4-0.7-0.6c-0.2-0.2-0.5-0.4-0.6-0.6c-0.2-0.2-0.3-0.4-0.4-0.5l0.6-0.8
		l2.8,2.3c0.2,0.2,0.5,0.3,0.7,0.4c0.2,0.1,0.4,0.1,0.6,0.1s0.4-0.2,0.6-0.4l0.2-0.3c0.2-0.3,0.3-0.5,0.2-0.8
		c-0.1-0.3-0.3-0.6-0.7-0.9l-1-0.8c-0.4-0.3-0.7-0.6-0.9-1s-0.3-0.7-0.3-1.1c0-0.4,0.2-0.8,0.6-1.2l0.3-0.4c0.3-0.4,0.7-0.7,1.1-0.9
		s0.8-0.1,1.3,0c0.5,0.2,1,0.5,1.6,0.9c0.3,0.2,0.5,0.4,0.8,0.7c0.3,0.3,0.6,0.5,0.8,0.8c0.3,0.3,0.5,0.5,0.6,0.7l-0.6,0.8l-2.7-2.1
		c-0.4-0.3-0.7-0.5-1-0.5c-0.3,0-0.6,0.1-0.9,0.5l-0.2,0.3c-0.2,0.2-0.3,0.4-0.3,0.6c0,0.2,0.1,0.4,0.2,0.5c0.1,0.2,0.3,0.4,0.6,0.5
		l1,0.8c0.6,0.5,1,1,1.1,1.6c0.1,0.6-0.1,1.1-0.5,1.6l-0.4,0.5c-0.4,0.5-0.8,0.7-1.2,0.8c-0.4,0.1-0.8,0-1.3-0.2
		S111.8,30.5,111.3,30.1z"/>
	<path d="M114.8,38.3l9.7-7.8l0.8,1l-0.5,0.8c0.2,0.1,0.5,0.2,0.8,0.3c0.3,0.1,0.6,0.3,0.9,0.5c0.3,0.2,0.5,0.4,0.8,0.7
		c0.3,0.4,0.6,0.9,0.6,1.3c0.1,0.4,0,0.9-0.1,1.3c-0.2,0.4-0.4,0.9-0.8,1.3c-0.3,0.4-0.8,0.8-1.2,1.2c-0.7,0.6-1.4,1-2.1,1.3
		c-0.6,0.3-1.2,0.3-1.8,0.2c-0.5-0.1-1-0.5-1.5-1.1c-0.3-0.4-0.5-0.8-0.7-1.2c-0.2-0.5-0.3-0.9-0.4-1.4l-3.5,2.8L114.8,38.3z
		 M121.2,38.1c0.2,0.3,0.5,0.5,0.8,0.6s0.7,0.1,1.2,0c0.5-0.1,1-0.5,1.6-1c0.6-0.5,1-0.9,1.2-1.3c0.2-0.4,0.3-0.8,0.3-1.2
		s-0.1-0.7-0.4-0.9c-0.3-0.4-0.6-0.6-0.9-0.8s-0.7-0.4-1-0.5l-3.8,3.1c0.1,0.4,0.2,0.7,0.3,1.1C120.7,37.5,120.9,37.8,121.2,38.1z"
		/>
	<path d="M123.3,43l7.3-4.5l0.6,1.1l-1,1.1c0.6,0.1,1.1,0.2,1.6,0.5s0.9,0.6,1.2,1.1c0.1,0.1,0.1,0.2,0.2,0.4
		c0.1,0.1,0.1,0.2,0.1,0.4l-1.4,0.9c-0.1-0.1-0.1-0.3-0.2-0.4c-0.1-0.1-0.1-0.3-0.2-0.4c-0.2-0.3-0.4-0.6-0.6-0.8
		c-0.2-0.2-0.5-0.4-0.8-0.5c-0.3-0.1-0.6-0.2-1-0.3l-5,3.1L123.3,43z"/>
	<path d="M127.9,51.7c-0.3-0.6-0.4-1.1-0.5-1.6s0-0.9,0.2-1.4c0.2-0.4,0.5-0.8,0.9-1.2s1.1-0.7,1.9-1.1c0.8-0.4,1.5-0.6,2.1-0.7
		c0.6-0.1,1.1-0.1,1.5,0.1c0.4,0.2,0.8,0.4,1.1,0.8c0.3,0.4,0.6,0.9,0.9,1.5c0.3,0.6,0.4,1.1,0.5,1.6s0,0.9-0.1,1.4
		c-0.2,0.4-0.5,0.8-0.9,1.2s-1.1,0.7-1.9,1.1c-0.8,0.4-1.5,0.6-2.1,0.7c-0.6,0.1-1.1,0.1-1.5-0.1s-0.8-0.4-1.1-0.8
		C128.4,52.8,128.1,52.3,127.9,51.7z M129.1,51.1c0.1,0.3,0.3,0.6,0.5,0.8c0.2,0.2,0.4,0.4,0.7,0.5c0.3,0.1,0.6,0.1,1,0
		c0.4-0.1,0.9-0.3,1.6-0.5c0.6-0.3,1.1-0.5,1.4-0.8c0.3-0.3,0.6-0.5,0.7-0.8c0.1-0.2,0.1-0.5,0.1-0.8s-0.1-0.6-0.3-0.9
		c-0.1-0.3-0.3-0.6-0.5-0.8c-0.2-0.2-0.4-0.4-0.6-0.5c-0.3-0.1-0.6-0.1-1,0c-0.4,0.1-0.9,0.3-1.6,0.5s-1.1,0.5-1.5,0.8
		s-0.6,0.5-0.7,0.7c-0.1,0.2-0.2,0.5-0.1,0.8C128.8,50.5,128.9,50.8,129.1,51.1z"/>
	<path d="M126.3,57.9l11.8-3.8l0.5,1.5l-8,2.5c-0.7,0.2-1.4,0.4-2.1,0.6c-0.7,0.1-1.3,0.2-1.8,0.3L126.3,57.9z M139.6,53.9
		c-0.1-0.2,0-0.3,0.2-0.3l1.3-0.4c0.2-0.1,0.3,0,0.4,0.2l0.4,1.1c0,0.1,0,0.2,0,0.2c0,0.1-0.1,0.1-0.2,0.1l-1.3,0.4
		c-0.2,0.1-0.3,0-0.3-0.2L139.6,53.9z"/>
	<path d="M131.6,63.5c-0.2-0.9-0.2-1.6,0-2.2s0.5-1.1,1.1-1.4c0.6-0.4,1.4-0.6,2.5-0.9c1.1-0.2,2-0.3,2.7-0.2
		c0.7,0.1,1.2,0.4,1.5,0.9s0.6,1.2,0.8,2c0.2,0.8,0.2,1.4,0.1,1.9c-0.1,0.5-0.3,0.9-0.6,1.2c-0.4,0.3-0.9,0.5-1.7,0.7
		c-0.5,0.1-0.9,0.1-1.3-0.1c-0.3-0.1-0.6-0.4-0.8-0.7c-0.2-0.3-0.4-0.8-0.5-1.3l-0.6-2.8c-0.6,0.1-1.1,0.3-1.4,0.5
		c-0.3,0.2-0.5,0.5-0.6,0.9c-0.1,0.4-0.1,0.9,0.1,1.6l0.5,2.6l-0.9,0.2c-0.2-0.4-0.3-0.9-0.5-1.3C131.9,64.6,131.7,64.1,131.6,63.5z
		 M135.9,60.4l0.5,2.7c0.1,0.4,0.2,0.7,0.4,0.9c0.2,0.2,0.5,0.2,0.9,0.1c0.4-0.1,0.7-0.2,1-0.4c0.2-0.2,0.3-0.4,0.4-0.7
		c0-0.3,0-0.7-0.1-1.1c-0.1-0.5-0.3-0.9-0.5-1.2c-0.2-0.3-0.5-0.4-1-0.5S136.6,60.3,135.9,60.4z"/>
	<path d="M132.7,71.5c0-0.5,0-1,0.1-1.4s0.3-0.8,0.6-1.2c0.3-0.3,0.7-0.6,1.3-0.8c0.6-0.2,1.3-0.3,2.1-0.4c0.9-0.1,1.6,0,2.2,0.1
		c0.6,0.1,1,0.3,1.4,0.6s0.6,0.6,0.8,1.1c0.2,0.4,0.3,0.9,0.3,1.5c0,0.4,0,0.9,0,1.4s0,1-0.1,1.5l-0.9,0.1l-0.2-2.4
		c0-0.5-0.1-1-0.3-1.3c-0.2-0.3-0.5-0.6-1-0.7c-0.5-0.1-1.2-0.2-2-0.1c-0.8,0.1-1.5,0.2-1.9,0.4c-0.4,0.2-0.7,0.5-0.9,0.9
		c-0.1,0.4-0.2,0.8-0.2,1.3l0.2,2.5l-0.9,0.1c-0.1-0.2-0.2-0.5-0.2-0.9s-0.1-0.7-0.2-1.1C132.7,72.2,132.7,71.9,132.7,71.5z"/>
	<path d="M132.8,78.8c0-0.6,0.1-1.1,0.3-1.4c0.2-0.4,0.5-0.6,0.9-0.8s1-0.2,1.7-0.2l4.4,0.3l0.1-1.4l1,0l0.2,1.4l2.4,0.4l-0.1,1.3
		l-2.4-0.1l-0.1,2.3l-1.3-0.1l0.1-2.3l-4.4-0.2c-0.3,0-0.6,0-0.8,0.1c-0.2,0.1-0.4,0.1-0.5,0.3c-0.1,0.1-0.2,0.2-0.3,0.4
		S134,79,134,79.1l-0.1,1.1l-1.2-0.1L132.8,78.8z"/>
</g>
<path class="st0" d="M136.3,89.7C129.6,117.4,104.7,138,75,138c-34.8,0-63-28.2-63-63c0-21.6,10.9-40.7,27.5-52"/>
</svg>
