<?xml version="1.0" encoding="UTF-8"?><svg id="a" xmlns="http://www.w3.org/2000/svg" viewBox="0 0 115.92 146.88"><defs><style>.b{fill:#28353e;fill-rule:evenodd;}</style></defs><path class="b" d="M56.51,118.19c3.22,0,4.56-14.49,7.51-15.3,2.95-.81,10.47,11.81,13.15,10.47,2.68-1.07-2.68-15.03-.27-16.64,2.15-1.88,14.49,6.17,16.37,4.03,1.61-2.42-8.86-12.61-7.51-15.3,1.34-2.68,15.83-.54,16.37-3.49,.81-2.95-13.15-7.51-13.15-10.74s13.96-7.78,13.15-10.74c-.54-2.95-15.03-.81-16.37-3.49-1.34-2.68,9.12-12.88,7.51-15.3-1.88-2.15-14.22,5.9-16.37,4.29-2.42-1.88,2.95-15.83,.27-16.91-2.68-1.34-10.2,11.27-13.15,10.47-2.95-.54-4.29-15.3-7.51-15.3s-4.56,14.76-7.51,15.3c-2.95,.81-10.47-11.81-13.15-10.47-2.68,1.07,2.68,15.03,.27,16.91-2.15,1.61-14.49-6.44-16.37-4.29-1.88,2.42,8.86,12.61,7.51,15.3-1.34,2.68-15.83,.54-16.64,3.49-.54,2.95,13.42,7.51,13.42,10.74s-13.96,7.78-13.42,10.74c.81,2.95,15.3,.81,16.64,3.49,1.34,2.68-9.39,12.88-7.51,15.3,1.88,2.15,14.22-5.9,16.37-4.03,2.42,1.61-2.95,15.57-.27,16.64,2.68,1.34,10.2-11.27,13.15-10.47,2.95,.81,4.29,15.3,7.51,15.3h0Z"/></svg>