<?xml version="1.0" encoding="UTF-8"?><svg id="a" xmlns="http://www.w3.org/2000/svg" viewBox="0 0 115.92 146.88"><defs><style>.b{fill-rule:evenodd;}.b,.c{fill:#fffaea;}.c{font-family:BNCreekLaneRegular, BN Creek Lane;font-size:8.72px;}</style></defs><polygon class="b" points="77.13 22.96 81.41 34.29 92.49 29.51 92.49 41.34 104.08 40.59 100.05 51.67 111.38 54.94 104.08 64.01 113.65 71.06 103.32 77.36 109.87 87.43 98.03 89.7 100.8 101.28 89.22 99.01 87.96 110.85 77.64 104.8 72.6 115.63 64.79 106.57 55.98 114.63 51.45 103.55 40.62 108.08 40.62 96.24 28.78 97 32.81 86.17 21.48 82.9 29.03 73.83 19.46 66.78 29.79 60.23 23.24 50.16 35.08 48.14 32.31 36.56 43.89 38.57 45.15 26.99 55.22 32.78 60.51 22.21 68.32 31.02 77.13 22.96"/><g><text class="c" transform="translate(-35.61 37.33) rotate(55.98)"><tspan x="0" y="0">N</tspan></text><text class="c" transform="translate(-29.56 46.57) rotate(66.82)"><tspan x="0" y="0">U</tspan></text><text class="c" transform="translate(-25.45 56.52) rotate(77.54)"><tspan x="0" y="0">E</tspan></text><text class="c" transform="translate(-23.29 66.81) rotate(87.56)"><tspan x="0" y="0">V</tspan></text><text class="c" transform="translate(-22.9 76.49) rotate(97.62)"><tspan x="0" y="0">O</tspan></text><text class="c" transform="translate(-24.73 87.81) rotate(106.44)"><tspan x="0" y="0"> </tspan></text><text class="c" transform="translate(-26.5 93.94) rotate(114.89)"><tspan x="0" y="0">C</tspan></text><text class="c" transform="translate(-31.04 103.48) rotate(125.78)"><tspan x="0" y="0">O</tspan></text><text class="c" transform="translate(-37.84 112.65) rotate(136.7)"><tspan x="0" y="0">N</tspan></text><text class="c" transform="translate(-45.9 120.05) rotate(147.49)"><tspan x="0" y="0">T</tspan></text><text class="c" transform="translate(-55.07 125.74) rotate(158.23)"><tspan x="0" y="0">E</tspan></text><text class="c" transform="translate(-65.19 129.65) rotate(168.95)"><tspan x="0" y="0">N</tspan></text><text class="c" transform="translate(-76.12 131.45) rotate(176.66)"><tspan x="0" y="0">I</tspan></text><text class="c" transform="translate(-80.75 131.84) rotate(-175.53)"><tspan x="0" y="0">D</tspan></text><text class="c" transform="translate(-91.88 130.84) rotate(-164.35)"><tspan x="0" y="0">O</tspan></text><text class="c" transform="translate(-102.85 127.44) rotate(-155.47)"><tspan x="0" y="0"> </tspan></text><text class="c" transform="translate(-108.66 124.66) rotate(-149.87)"><tspan x="0" y="0">/</tspan></text><text class="c" transform="translate(-112.81 122.17) rotate(-145.08)"><tspan x="0" y="0">/</tspan></text><text class="c" transform="translate(-116.7 119.34) rotate(-141.25)"><tspan x="0" y="0">/</tspan></text><text class="c" transform="translate(-120.41 116.25) rotate(-134.89)"><tspan x="0" y="0"> </tspan></text><text class="c" transform="translate(-124.98 111.75) rotate(-126.23)"><tspan x="0" y="0">N</tspan></text><text class="c" transform="translate(-131.37 102.76) rotate(-115.38)"><tspan x="0" y="0">U</tspan></text><text class="c" transform="translate(-135.87 92.97) rotate(-104.65)"><tspan x="0" y="0">E</tspan></text><text class="c" transform="translate(-138.41 82.79) rotate(-94.64)"><tspan x="0" y="0">V</tspan></text><text class="c" transform="translate(-139.17 73.14) rotate(-84.6)"><tspan x="0" y="0">O</tspan></text><text class="c" transform="translate(-137.78 61.74) rotate(-75.77)"><tspan x="0" y="0"> </tspan></text><text class="c" transform="translate(-136.25 55.55) rotate(-67.33)"><tspan x="0" y="0">C</tspan></text><text class="c" transform="translate(-132.07 45.82) rotate(-56.39)"><tspan x="0" y="0">O</tspan></text><text class="c" transform="translate(-125.65 36.43) rotate(-45.52)"><tspan x="0" y="0">N</tspan></text><text class="c" transform="translate(-117.87 28.71) rotate(-34.73)"><tspan x="0" y="0">T</tspan></text><text class="c" transform="translate(-108.94 22.67) rotate(-23.98)"><tspan x="0" y="0">E</tspan></text><text class="c" transform="translate(-98.97 18.38) rotate(-13.25)"><tspan x="0" y="0">N</tspan></text><text class="c" transform="translate(-88.12 16.15) rotate(-5.54)"><tspan x="0" y="0">I</tspan></text><text class="c" transform="translate(-83.53 15.59) rotate(2.24)"><tspan x="0" y="0">D</tspan></text><text class="c" transform="translate(-72.35 16.16) rotate(13.43)"><tspan x="0" y="0">O</tspan></text><text class="c" transform="translate(-61.25 19.13) rotate(22.31)"><tspan x="0" y="0"> </tspan></text><text class="c" transform="translate(-55.34 21.69) rotate(27.91)"><tspan x="0" y="0">/</tspan></text><text class="c" transform="translate(-51.1 24.01) rotate(32.7)"><tspan x="0" y="0">/</tspan></text><text class="c" transform="translate(-47.07 26.68) rotate(37.46)"><tspan x="0" y="0">/</tspan></text></g></svg>