<?xml version="1.0" encoding="UTF-8"?><svg id="a" xmlns="http://www.w3.org/2000/svg" viewBox="0 0 115.92 146.88"><defs><style>.b{fill:none;fill-rule:evenodd;stroke:#fffaea;stroke-miterlimit:10;}</style></defs><polygon class="b" points="77.36 25.51 81.64 36.84 92.72 32.06 92.72 43.9 104.3 43.14 100.27 54.22 111.6 57.49 104.3 66.56 113.87 73.61 103.54 79.91 110.09 89.98 98.26 92.25 101.03 103.83 89.44 101.56 88.18 113.4 77.86 107.35 72.82 118.18 65.02 109.12 56.2 117.18 51.67 106.1 40.84 110.63 40.84 98.79 29 99.55 33.03 88.72 21.7 85.45 29.26 76.38 19.69 69.33 30.01 62.78 23.46 52.71 35.3 50.69 32.53 39.11 44.11 41.12 45.37 29.54 55.45 35.33 60.73 24.76 68.54 33.57 77.36 25.51"/></svg>