<?xml version="1.0" encoding="UTF-8"?><svg id="a" xmlns="http://www.w3.org/2000/svg" viewBox="0 0 115.92 146.88"><defs><style>.b{fill:#28353e;fill-rule:evenodd;}</style></defs><polygon class="b" points="69.9 25.26 74.18 36.6 85.26 31.81 85.26 43.65 96.85 42.89 92.82 53.97 104.15 57.25 96.85 66.31 106.42 73.36 96.09 79.66 102.64 89.73 90.8 92 93.57 103.58 81.99 101.32 80.73 113.15 70.41 107.11 65.37 117.94 57.56 108.87 48.75 116.93 44.22 105.85 33.39 110.38 33.39 98.55 21.55 99.3 25.58 88.47 14.25 85.2 21.8 76.13 12.23 69.08 22.56 62.53 16.01 52.46 27.85 50.45 25.08 38.86 36.66 40.88 37.92 29.29 47.99 35.09 53.28 24.51 61.09 33.32 69.9 25.26"/></svg>