<?xml version="1.0" encoding="UTF-8"?><svg id="a" xmlns="http://www.w3.org/2000/svg" viewBox="0 0 115.92 146.88"><defs><style>.b{fill:#28353e;}</style></defs><polygon class="b" points="107.19 70.11 49.19 69.89 107.09 73.25 49.22 69.43 106.79 76.4 49.28 68.96 106.3 79.54 49.37 68.48 105.61 82.65 49.49 68.01 104.72 85.7 49.64 67.54 103.64 88.7 49.82 67.09 102.37 91.62 50.03 66.65 100.93 94.44 50.26 66.23 99.31 97.17 50.51 65.83 97.53 99.78 50.79 65.45 95.59 102.28 51.09 65.09 93.5 104.64 51.4 64.75 91.27 106.88 51.74 64.44 88.9 108.96 52.1 64.14 86.41 110.9 52.48 63.86 83.79 112.68 52.88 63.61 81.07 114.3 53.3 63.38 78.24 115.74 53.74 63.17 75.33 117 54.19 62.99 72.33 118.08 54.66 62.84 69.28 118.96 55.13 62.72 66.18 119.65 55.61 62.63 63.04 120.15 56.08 62.57 59.9 120.44 56.53 62.54 56.76 120.54 56.98 62.54 53.61 120.44 57.44 62.57 50.46 120.15 57.91 62.63 47.32 119.65 58.38 62.72 44.22 118.96 58.86 62.84 41.16 118.07 59.32 62.99 38.17 116.99 59.78 63.17 35.25 115.73 60.21 63.38 32.42 114.28 60.63 63.61 29.7 112.67 61.03 63.87 27.08 110.89 61.41 64.14 24.59 108.95 61.77 64.44 22.22 106.86 62.11 64.76 19.99 104.62 62.43 65.1 17.9 102.26 62.72 65.45 15.96 99.76 63 65.83 14.18 97.15 63.26 66.23 12.57 94.42 63.49 66.65 11.13 91.59 63.69 67.09 9.86 88.68 63.87 67.55 8.79 85.69 64.02 68.01 7.9 82.63 64.14 68.48 7.21 79.53 64.23 68.96 6.72 76.4 64.29 69.43 6.42 73.25 64.32 69.89 6.33 70.11 64.32 70.33 6.42 66.96 64.29 70.79 6.72 63.81 64.23 71.26 7.21 60.68 64.14 71.73 7.9 57.57 64.02 72.21 8.79 54.51 63.87 72.67 9.87 51.52 63.69 73.13 11.14 48.6 63.48 73.57 12.58 45.78 63.25 73.99 14.2 43.05 63 74.39 15.98 40.44 62.72 74.77 17.92 37.94 62.43 75.12 20.01 35.57 62.11 75.46 22.24 33.34 61.77 75.78 24.61 31.25 61.41 76.08 27.1 29.32 61.03 76.35 29.72 27.54 60.63 76.61 32.44 25.92 60.21 76.84 35.27 24.48 59.77 77.05 38.18 23.22 59.32 77.23 41.18 22.14 58.85 77.38 44.23 21.25 58.38 77.5 47.34 20.56 57.9 77.59 50.47 20.07 57.43 77.65 53.61 19.78 56.98 77.68 56.76 19.68 56.53 77.68 59.9 19.78 56.08 77.65 63.05 20.07 55.6 77.59 66.19 20.57 55.13 77.5 69.29 21.26 54.66 77.38 72.35 22.15 54.19 77.22 75.35 23.22 53.74 77.04 78.26 24.49 53.3 76.84 81.09 25.93 52.88 76.61 83.81 27.55 52.48 76.35 86.43 29.33 52.1 76.08 88.92 31.27 51.74 75.78 91.29 33.36 51.4 75.46 93.52 35.59 51.08 75.12 95.61 37.96 50.79 74.76 97.55 40.46 50.51 74.38 99.33 43.07 50.26 73.98 100.94 45.8 50.02 73.56 102.38 48.62 49.82 73.13 103.65 51.54 49.64 72.67 104.72 54.53 49.49 72.21 105.61 57.59 49.37 71.73 106.3 60.69 49.28 71.26 106.79 63.82 49.22 70.79 107.09 66.97 49.19 70.33 107.19 70.11"/></svg>