<?xml version="1.0" encoding="UTF-8"?><svg id="a" xmlns="http://www.w3.org/2000/svg" viewBox="0 0 115.92 146.88"><defs><style>.b{fill:#fffaea;}</style></defs><polygon class="b" points="117.46 73.11 80.63 73.91 117.13 78.91 80.45 75.45 116.12 84.67 80.1 76.95 114.45 90.27 79.57 78.39 112.13 95.64 78.88 79.77 109.21 100.69 78.02 81.06 105.72 105.36 77.02 82.26 101.73 109.59 75.88 83.33 97.27 113.33 74.63 84.26 92.41 116.53 73.29 85.04 87.19 119.16 71.88 85.65 81.7 121.16 70.41 86.09 76.01 122.5 68.89 86.35 70.22 123.17 67.32 86.44 64.42 123.17 65.75 86.35 58.63 122.5 64.23 86.09 52.94 121.16 62.76 85.65 47.45 119.16 61.35 85.04 42.23 116.53 60.01 84.26 37.36 113.32 58.76 83.33 32.91 109.58 57.62 82.26 28.92 105.35 56.62 81.06 25.44 100.68 55.77 79.77 22.52 95.63 55.07 78.39 20.2 90.27 54.55 76.95 18.52 84.67 54.2 75.45 17.52 78.92 54.02 73.91 17.18 73.11 54.02 72.32 17.52 67.31 54.2 70.78 18.52 61.56 54.55 69.28 20.2 55.96 55.07 67.84 22.52 50.59 55.77 66.46 25.44 45.54 56.62 65.16 28.92 40.87 57.63 63.97 32.92 36.64 58.76 62.9 37.37 32.9 60.01 61.97 42.24 29.69 61.35 61.19 47.45 27.07 62.76 60.58 52.95 25.07 64.23 60.14 58.63 23.73 65.75 59.88 64.42 23.06 67.32 59.79 70.22 23.06 68.89 59.88 76.01 23.73 70.41 60.14 81.7 25.07 71.88 60.58 87.2 27.07 73.3 61.19 92.41 29.7 74.64 61.97 97.28 32.91 75.88 62.9 101.74 36.65 77.02 63.97 105.73 40.88 78.02 65.17 109.21 45.55 78.88 66.46 112.13 50.6 79.57 67.84 114.45 55.96 80.1 69.28 116.12 61.56 80.45 70.78 117.13 67.31 80.63 72.32 117.46 73.11"/></svg>