<?xml version="1.0" encoding="UTF-8"?><svg id="a" xmlns="http://www.w3.org/2000/svg" viewBox="0 0 115.92 146.88"><defs><style>.b{fill:#ab6572;}</style></defs><polygon class="b" points="110.01 72.87 73.18 73.66 109.68 78.67 73 75.2 108.67 84.42 72.64 76.7 106.99 90.03 72.12 78.14 104.67 95.39 71.43 79.52 101.75 100.44 70.57 80.82 98.27 105.11 69.57 82.01 94.28 109.34 68.43 83.09 89.82 113.08 67.18 84.02 84.96 116.29 65.84 84.79 79.74 118.91 64.43 85.4 74.25 120.91 62.96 85.84 68.56 122.25 61.44 86.11 62.77 122.92 59.87 86.2 56.97 122.92 58.3 86.11 51.18 122.25 56.78 85.84 45.49 120.91 55.31 85.4 39.99 118.91 53.9 84.79 34.78 116.28 52.56 84.01 29.91 113.08 51.31 83.08 25.46 109.33 50.17 82.01 21.46 105.1 49.17 80.82 17.98 100.43 48.31 79.52 15.06 95.38 47.62 78.14 12.75 90.02 47.1 76.7 11.07 84.42 46.74 75.2 10.06 78.67 46.56 73.66 9.73 72.87 46.56 72.08 10.06 67.07 46.74 70.53 11.07 61.31 47.1 69.03 12.75 55.71 47.62 67.59 15.07 50.34 48.32 66.21 17.99 45.29 49.17 64.92 21.47 40.63 50.17 63.72 25.46 36.4 51.31 62.65 29.92 32.65 52.56 61.72 34.79 29.45 53.9 60.94 40 26.82 55.31 60.33 45.49 24.82 56.78 59.9 51.18 23.48 58.3 59.63 56.97 22.81 59.87 59.54 62.77 22.81 61.44 59.63 68.56 23.48 62.96 59.9 74.25 24.82 64.43 60.33 79.75 26.83 65.84 60.94 84.96 29.45 67.18 61.72 89.83 32.66 68.43 62.65 94.28 36.4 69.57 63.72 98.28 40.63 70.57 64.92 101.76 45.3 71.43 66.22 104.68 50.35 72.12 67.59 106.99 55.72 72.64 69.04 108.67 61.32 73 70.53 109.68 67.07 73.18 72.08 110.01 72.87"/></svg>