<?xml version="1.0" encoding="UTF-8"?><svg id="a" xmlns="http://www.w3.org/2000/svg" viewBox="0 0 154.28 146.88"><defs><style>.b,.c{fill:#fffaea;}.c{font-family:BNCreekLaneRegular, BN Creek Lane;font-size:8.72px;}</style></defs><text class="c" transform="translate(129.99 37.33) rotate(55.98)"><tspan x="0" y="0">N</tspan></text><text class="c" transform="translate(136.04 46.57) rotate(66.82)"><tspan x="0" y="0">U</tspan></text><text class="c" transform="translate(140.15 56.52) rotate(77.54)"><tspan x="0" y="0">E</tspan></text><text class="c" transform="translate(142.31 66.81) rotate(87.56)"><tspan x="0" y="0">V</tspan></text><text class="c" transform="translate(142.7 76.49) rotate(97.62)"><tspan x="0" y="0">O</tspan></text><text class="c" transform="translate(140.87 87.81) rotate(106.44)"><tspan x="0" y="0"> </tspan></text><text class="c" transform="translate(139.1 93.94) rotate(114.89)"><tspan x="0" y="0">C</tspan></text><text class="c" transform="translate(134.56 103.48) rotate(125.78)"><tspan x="0" y="0">O</tspan></text><text class="c" transform="translate(127.76 112.65) rotate(136.7)"><tspan x="0" y="0">N</tspan></text><text class="c" transform="translate(119.7 120.05) rotate(147.49)"><tspan x="0" y="0">T</tspan></text><text class="c" transform="translate(110.53 125.74) rotate(158.23)"><tspan x="0" y="0">E</tspan></text><text class="c" transform="translate(100.41 129.65) rotate(168.95)"><tspan x="0" y="0">N</tspan></text><text class="c" transform="translate(89.48 131.45) rotate(176.66)"><tspan x="0" y="0">I</tspan></text><text class="c" transform="translate(84.85 131.84) rotate(-175.53)"><tspan x="0" y="0">D</tspan></text><text class="c" transform="translate(73.72 130.84) rotate(-164.35)"><tspan x="0" y="0">O</tspan></text><text class="c" transform="translate(62.75 127.44) rotate(-155.47)"><tspan x="0" y="0"> </tspan></text><text class="c" transform="translate(56.94 124.66) rotate(-149.87)"><tspan x="0" y="0">/</tspan></text><text class="c" transform="translate(52.79 122.17) rotate(-145.08)"><tspan x="0" y="0">/</tspan></text><text class="c" transform="translate(48.9 119.34) rotate(-141.25)"><tspan x="0" y="0">/</tspan></text><text class="c" transform="translate(45.19 116.25) rotate(-134.89)"><tspan x="0" y="0"> </tspan></text><text class="c" transform="translate(40.62 111.75) rotate(-126.23)"><tspan x="0" y="0">N</tspan></text><text class="c" transform="translate(34.23 102.76) rotate(-115.38)"><tspan x="0" y="0">U</tspan></text><text class="c" transform="translate(29.73 92.97) rotate(-104.65)"><tspan x="0" y="0">E</tspan></text><text class="c" transform="translate(27.19 82.79) rotate(-94.64)"><tspan x="0" y="0">V</tspan></text><text class="c" transform="translate(26.43 73.14) rotate(-84.6)"><tspan x="0" y="0">O</tspan></text><text class="c" transform="translate(27.82 61.74) rotate(-75.77)"><tspan x="0" y="0"> </tspan></text><text class="c" transform="translate(29.35 55.55) rotate(-67.33)"><tspan x="0" y="0">C</tspan></text><text class="c" transform="translate(33.53 45.82) rotate(-56.39)"><tspan x="0" y="0">O</tspan></text><text class="c" transform="translate(39.95 36.43) rotate(-45.52)"><tspan x="0" y="0">N</tspan></text><text class="c" transform="translate(47.73 28.71) rotate(-34.73)"><tspan x="0" y="0">T</tspan></text><text class="c" transform="translate(56.66 22.67) rotate(-23.98)"><tspan x="0" y="0">E</tspan></text><text class="c" transform="translate(66.63 18.38) rotate(-13.25)"><tspan x="0" y="0">N</tspan></text><text class="c" transform="translate(77.48 16.15) rotate(-5.54)"><tspan x="0" y="0">I</tspan></text><text class="c" transform="translate(82.07 15.59) rotate(2.24)"><tspan x="0" y="0">D</tspan></text><text class="c" transform="translate(93.25 16.16) rotate(13.43)"><tspan x="0" y="0">O</tspan></text><text class="c" transform="translate(104.35 19.13) rotate(22.31)"><tspan x="0" y="0"> </tspan></text><text class="c" transform="translate(110.26 21.69) rotate(27.91)"><tspan x="0" y="0">/</tspan></text><text class="c" transform="translate(114.5 24.01) rotate(32.7)"><tspan x="0" y="0">/</tspan></text><text class="c" transform="translate(118.53 26.68) rotate(37.46)"><tspan x="0" y="0">/</tspan></text><g><path class="b" d="M83.28,118.51c-6.05,0-11.92-1.19-17.45-3.52-5.34-2.26-10.13-5.49-14.25-9.6-4.12-4.12-7.35-8.91-9.6-14.25-2.34-5.53-3.52-11.4-3.52-17.45s1.19-11.92,3.52-17.45c2.26-5.34,5.49-10.13,9.6-14.25,4.12-4.12,8.91-7.35,14.25-9.6,5.53-2.34,11.4-3.52,17.45-3.52s11.92,1.19,17.45,3.52c5.34,2.26,10.13,5.49,14.25,9.6,4.12,4.12,7.35,8.91,9.6,14.25,2.34,5.53,3.52,11.4,3.52,17.45s-1.19,11.92-3.52,17.45c-2.26,5.34-5.49,10.13-9.6,14.25-4.12,4.12-8.91,7.35-14.25,9.6-5.53,2.34-11.4,3.52-17.45,3.52Zm0-88.33c-23.99,0-43.51,19.52-43.51,43.51s19.52,43.51,43.51,43.51,43.51-19.52,43.51-43.51-19.52-43.51-43.51-43.51Z"/><path class="b" d="M83.28,118.51c-6.05,0-11.92-1.19-17.45-3.52-5.34-2.26-10.13-5.49-14.25-9.6-4.12-4.12-7.35-8.91-9.6-14.25-2.34-5.53-3.52-11.4-3.52-17.45s1.19-11.92,3.52-17.45c2.26-5.34,5.49-10.13,9.6-14.25,4.12-4.12,8.91-7.35,14.25-9.6,5.53-2.34,11.4-3.52,17.45-3.52s11.92,1.19,17.45,3.52c5.34,2.26,10.13,5.49,14.25,9.6,4.12,4.12,7.35,8.91,9.6,14.25,2.34,5.53,3.52,11.4,3.52,17.45s-1.19,11.92-3.52,17.45c-2.26,5.34-5.49,10.13-9.6,14.25-4.12,4.12-8.91,7.35-14.25,9.6-5.53,2.34-11.4,3.52-17.45,3.52Zm0-88.33c-23.99,0-43.51,19.52-43.51,43.51s19.52,43.51,43.51,43.51,43.51-19.52,43.51-43.51-19.52-43.51-43.51-43.51Z"/><path class="b" d="M83.28,118.51c-3.72,0-7.31-1.21-10.69-3.59-3.23-2.28-6.13-5.53-8.61-9.66-2.47-4.11-4.4-8.89-5.75-14.21-1.4-5.5-2.1-11.34-2.1-17.35s.71-11.85,2.1-17.35c1.35-5.32,3.29-10.1,5.75-14.21,2.48-4.13,5.38-7.39,8.61-9.66,3.38-2.38,6.98-3.59,10.69-3.59s7.31,1.21,10.69,3.59c3.23,2.28,6.13,5.53,8.61,9.66,2.47,4.11,4.4,8.89,5.75,14.21,1.4,5.5,2.1,11.34,2.1,17.35s-.71,11.85-2.1,17.35c-1.35,5.32-3.29,10.1-5.75,14.21-2.48,4.13-5.38,7.39-8.61,9.66-3.38,2.38-6.98,3.59-10.69,3.59Zm0-88.33c-14.25,0-25.84,19.52-25.84,43.51s11.59,43.51,25.84,43.51,25.84-19.52,25.84-43.51-11.59-43.51-25.84-43.51Z"/><path class="b" d="M83.28,118.51c-1.47,0-2.82-1.29-4.03-3.85-1.07-2.27-2.04-5.51-2.86-9.62-1.68-8.38-2.6-19.52-2.6-31.36s.92-22.97,2.6-31.36c.82-4.11,1.78-7.34,2.86-9.62,1.21-2.55,2.56-3.85,4.03-3.85s2.82,1.29,4.03,3.85c1.07,2.27,2.04,5.51,2.86,9.62,1.68,8.38,2.6,19.52,2.6,31.36s-.92,22.97-2.6,31.36c-.82,4.11-1.78,7.34-2.86,9.62-1.21,2.55-2.56,3.85-4.03,3.85Zm0-88.33c-.89,0-1.9,1.1-2.85,3.1-1.03,2.18-1.96,5.31-2.76,9.31-1.66,8.3-2.57,19.35-2.57,31.1s.91,22.8,2.57,31.1c.8,4,1.73,7.14,2.76,9.31,.94,2,1.95,3.1,2.85,3.1s1.9-1.1,2.85-3.1c1.03-2.18,1.96-5.31,2.76-9.31,1.66-8.3,2.57-19.34,2.57-31.1s-.91-22.8-2.57-31.1c-.8-4-1.73-7.14-2.76-9.31-.94-2-1.95-3.1-2.85-3.1Z"/><path class="b" d="M83.28,118.51c-6.05,0-11.92-1.19-17.45-3.52-5.34-2.26-10.13-5.49-14.25-9.6-4.12-4.12-7.35-8.91-9.6-14.25-2.34-5.53-3.52-11.4-3.52-17.45s1.19-11.92,3.52-17.45c2.26-5.34,5.49-10.13,9.6-14.25,4.12-4.12,8.91-7.35,14.25-9.6,5.53-2.34,11.4-3.52,17.45-3.52s11.92,1.19,17.45,3.52c5.34,2.26,10.13,5.49,14.25,9.6,4.12,4.12,7.35,8.91,9.6,14.25,2.34,5.53,3.52,11.4,3.52,17.45s-1.19,11.92-3.52,17.45c-2.26,5.34-5.49,10.13-9.6,14.25-4.12,4.12-8.91,7.35-14.25,9.6-5.53,2.34-11.4,3.52-17.45,3.52Zm0-88.33c-23.99,0-43.51,19.52-43.51,43.51s19.52,43.51,43.51,43.51,43.51-19.52,43.51-43.51-19.52-43.51-43.51-43.51Z"/><path class="b" d="M83.21,118.51c-4.32,0-8.59-.62-12.75-1.87-5.55-1.66-10.67-4.35-15.21-7.99-4.54-3.64-8.28-8.05-11.11-13.11-2.93-5.24-4.75-10.94-5.41-16.96-.66-6.01-.13-11.98,1.59-17.73,1.66-5.55,4.35-10.67,7.99-15.21,3.64-4.54,8.05-8.28,13.11-11.11,5.24-2.93,10.94-4.75,16.96-5.41,6.01-.66,11.98-.13,17.73,1.59,5.55,1.66,10.67,4.35,15.21,7.99,4.54,3.64,8.28,8.05,11.11,13.11,2.93,5.24,4.75,10.94,5.41,16.96,.66,6.01,.13,11.98-1.59,17.73-1.66,5.55-4.35,10.67-7.99,15.21-3.64,4.54-8.05,8.28-13.11,11.11-5.24,2.93-10.94,4.75-16.96,5.41-1.66,.18-3.33,.27-4.98,.27Zm.11-88.33c-1.58,0-3.18,.09-4.79,.26-23.85,2.62-41.11,24.16-38.49,48.01,1.27,11.55,6.97,21.92,16.03,29.19,7.79,6.25,17.28,9.57,27.13,9.57,1.61,0,3.22-.09,4.84-.27,11.55-1.27,21.92-6.97,29.19-16.03,7.27-9.07,10.57-20.42,9.3-31.97-2.45-22.23-21.34-38.75-43.21-38.75Z"/><rect class="b" x="39.12" y="73.03" width="88.33" height="1.31"/><path class="b" d="M48.42,101.26l-.29-1.28c10.46-2.34,22.62-3.58,35.14-3.58,12.53,0,24.68,1.24,35.14,3.58l-.29,1.28c-10.37-2.32-22.42-3.54-34.86-3.54-12.43,0-24.49,1.23-34.86,3.54Z"/><path class="b" d="M83.28,50.97c-12.53,0-24.68-1.24-35.14-3.58l.29-1.28c10.37,2.32,22.42,3.54,34.86,3.54s24.49-1.23,34.86-3.54l.29,1.28c-10.46,2.34-22.62,3.58-35.14,3.58Z"/></g></svg>