<?xml version="1.0" encoding="UTF-8"?><svg id="a" xmlns="http://www.w3.org/2000/svg" viewBox="0 0 115.92 146.88"><defs><style>.b{fill:#fffaea;}</style></defs><polygon class="b" points="114.64 70.36 56.64 70.13 114.54 73.5 56.67 69.68 114.25 76.65 56.73 69.21 113.75 79.79 56.82 68.73 113.06 82.89 56.94 68.26 112.17 85.95 57.09 67.79 111.09 88.95 57.27 67.34 109.83 91.86 57.48 66.9 108.38 94.69 57.71 66.48 106.77 97.41 57.96 66.08 104.99 100.03 58.24 65.7 103.05 102.52 58.54 65.34 100.96 104.89 58.86 65 98.72 107.12 59.19 64.68 96.36 109.21 59.55 64.39 93.86 111.15 59.93 64.11 91.25 112.93 60.33 63.86 88.52 114.54 60.75 63.62 85.69 115.99 61.19 63.42 82.78 117.25 61.64 63.24 79.79 118.32 62.11 63.09 76.73 119.21 62.58 62.97 73.63 119.9 63.06 62.88 70.5 120.39 63.53 62.82 67.35 120.69 63.99 62.79 64.21 120.79 64.43 62.79 61.06 120.69 64.89 62.82 57.91 120.39 65.36 62.88 54.77 119.9 65.83 62.97 51.67 119.21 66.31 63.09 48.61 118.32 66.77 63.24 45.62 117.24 67.23 63.42 42.7 115.98 67.67 63.63 39.87 114.53 68.09 63.86 37.15 112.91 68.49 64.11 34.53 111.13 68.86 64.39 32.04 109.19 69.22 64.69 29.67 107.1 69.56 65 27.44 104.87 69.88 65.34 25.35 102.5 70.18 65.7 23.42 100.01 70.45 66.08 21.64 97.39 70.71 66.48 20.02 94.67 70.94 66.9 18.58 91.84 71.15 67.34 17.32 88.93 71.32 67.79 16.24 85.94 71.48 68.26 15.35 82.88 71.6 68.73 14.66 79.78 71.69 69.21 14.17 76.64 71.75 69.68 13.88 73.5 71.77 70.13 13.78 70.36 71.77 70.58 13.88 67.21 71.75 71.04 14.17 64.06 71.69 71.51 14.66 60.92 71.6 71.98 15.36 57.82 71.48 72.46 16.24 54.76 71.32 72.92 17.32 51.77 71.14 73.38 18.59 48.85 70.94 73.81 20.03 46.02 70.71 74.23 21.65 43.3 70.45 74.63 23.43 40.68 70.18 75.01 25.37 38.19 69.88 75.37 27.46 35.82 69.56 75.71 29.69 33.59 69.22 76.03 32.06 31.5 68.86 76.33 34.55 29.56 68.48 76.6 37.17 27.78 68.08 76.86 39.9 26.17 67.66 77.09 42.72 24.73 67.22 77.29 45.64 23.46 66.77 77.47 48.63 22.39 66.31 77.62 51.68 21.5 65.83 77.75 54.79 20.81 65.36 77.84 57.92 20.32 64.89 77.89 61.06 20.02 64.43 77.92 64.21 19.93 63.99 77.92 67.35 20.02 63.53 77.89 70.5 20.32 63.06 77.84 73.64 20.81 62.58 77.74 76.75 21.5 62.11 77.62 79.8 22.39 61.64 77.47 82.8 23.47 61.19 77.29 85.71 24.74 60.75 77.09 88.54 26.18 60.33 76.85 91.27 27.8 59.93 76.6 93.88 29.58 59.55 76.32 96.38 31.52 59.19 76.03 98.74 33.61 58.85 75.71 100.97 35.84 58.54 75.37 103.06 38.21 58.24 75.01 105 40.7 57.96 74.63 106.78 43.32 57.71 74.23 108.39 46.04 57.48 73.81 109.84 48.87 57.27 73.37 111.1 51.78 57.09 72.92 112.18 54.78 56.94 72.45 113.06 57.83 56.82 71.98 113.75 60.94 56.73 71.5 114.25 64.07 56.67 71.03 114.54 67.21 56.64 70.58 114.64 70.36"/></svg>