<?xml version="1.0" encoding="UTF-8"?><svg id="a" xmlns="http://www.w3.org/2000/svg" viewBox="0 0 669.26 146.88"><defs><style>.b{fill:#2e5d4d;font-family:BNCreekLaneRegular, BN Creek Lane;font-size:8.72px;}.c{fill:none;stroke:#2e5d4d;stroke-miterlimit:10;}</style></defs><rect class="c" x="14.27" y="33.99" width="649.79" height="89.65" rx="44.82" ry="44.82"/><g><text class="b" transform="translate(121.48 -118.44) rotate(55.98)"><tspan x="0" y="0">N</tspan></text><text class="b" transform="translate(127.53 -109.2) rotate(66.82)"><tspan x="0" y="0">U</tspan></text><text class="b" transform="translate(131.65 -99.24) rotate(77.54)"><tspan x="0" y="0">E</tspan></text><text class="b" transform="translate(133.8 -88.96) rotate(87.56)"><tspan x="0" y="0">V</tspan></text><text class="b" transform="translate(134.19 -79.28) rotate(97.62)"><tspan x="0" y="0">O</tspan></text><text class="b" transform="translate(132.36 -67.96) rotate(106.44)"><tspan x="0" y="0"> </tspan></text><text class="b" transform="translate(130.59 -61.82) rotate(114.89)"><tspan x="0" y="0">C</tspan></text><text class="b" transform="translate(126.05 -52.29) rotate(125.78)"><tspan x="0" y="0">O</tspan></text><text class="b" transform="translate(119.25 -43.12) rotate(136.7)"><tspan x="0" y="0">N</tspan></text><text class="b" transform="translate(111.19 -35.71) rotate(147.49)"><tspan x="0" y="0">T</tspan></text><text class="b" transform="translate(102.02 -30.02) rotate(158.23)"><tspan x="0" y="0">E</tspan></text><text class="b" transform="translate(91.9 -26.12) rotate(168.95)"><tspan x="0" y="0">N</tspan></text><text class="b" transform="translate(80.98 -24.31) rotate(176.66)"><tspan x="0" y="0">I</tspan></text><text class="b" transform="translate(76.34 -23.93) rotate(-175.53)"><tspan x="0" y="0">D</tspan></text><text class="b" transform="translate(65.21 -24.93) rotate(-164.35)"><tspan x="0" y="0">O</tspan></text><text class="b" transform="translate(54.24 -28.33) rotate(-155.47)"><tspan x="0" y="0"> </tspan></text><text class="b" transform="translate(48.43 -31.11) rotate(-149.87)"><tspan x="0" y="0">/</tspan></text><text class="b" transform="translate(44.28 -33.6) rotate(-145.08)"><tspan x="0" y="0">/</tspan></text><text class="b" transform="translate(40.39 -36.43) rotate(-141.25)"><tspan x="0" y="0">/</tspan></text><text class="b" transform="translate(36.68 -39.52) rotate(-134.89)"><tspan x="0" y="0"> </tspan></text><text class="b" transform="translate(32.11 -44.01) rotate(-126.23)"><tspan x="0" y="0">N</tspan></text><text class="b" transform="translate(25.72 -53.01) rotate(-115.38)"><tspan x="0" y="0">U</tspan></text><text class="b" transform="translate(21.22 -62.8) rotate(-104.65)"><tspan x="0" y="0">E</tspan></text><text class="b" transform="translate(18.68 -72.98) rotate(-94.64)"><tspan x="0" y="0">V</tspan></text><text class="b" transform="translate(17.92 -82.62) rotate(-84.6)"><tspan x="0" y="0">O</tspan></text><text class="b" transform="translate(19.31 -94.03) rotate(-75.77)"><tspan x="0" y="0"> </tspan></text><text class="b" transform="translate(20.84 -100.22) rotate(-67.33)"><tspan x="0" y="0">C</tspan></text><text class="b" transform="translate(25.02 -109.95) rotate(-56.39)"><tspan x="0" y="0">O</tspan></text><text class="b" transform="translate(31.44 -119.34) rotate(-45.52)"><tspan x="0" y="0">N</tspan></text><text class="b" transform="translate(39.22 -127.06) rotate(-34.73)"><tspan x="0" y="0">T</tspan></text><text class="b" transform="translate(48.16 -133.1) rotate(-23.98)"><tspan x="0" y="0">E</tspan></text><text class="b" transform="translate(58.12 -137.39) rotate(-13.25)"><tspan x="0" y="0">N</tspan></text><text class="b" transform="translate(68.97 -139.62) rotate(-5.54)"><tspan x="0" y="0">I</tspan></text><text class="b" transform="translate(73.56 -140.18) rotate(2.24)"><tspan x="0" y="0">D</tspan></text><text class="b" transform="translate(84.74 -139.61) rotate(13.43)"><tspan x="0" y="0">O</tspan></text><text class="b" transform="translate(95.84 -136.63) rotate(22.31)"><tspan x="0" y="0"> </tspan></text><text class="b" transform="translate(101.75 -134.08) rotate(27.91)"><tspan x="0" y="0">/</tspan></text><text class="b" transform="translate(105.99 -131.76) rotate(32.7)"><tspan x="0" y="0">/</tspan></text><text class="b" transform="translate(110.02 -129.09) rotate(37.46)"><tspan x="0" y="0">/</tspan></text></g></svg>