<?xml version="1.0" encoding="UTF-8"?><svg id="a" xmlns="http://www.w3.org/2000/svg" viewBox="0 0 126 146.88"><defs><style>.b{fill:#fffaea;}</style></defs><polygon class="b" points="127.5 67.71 117.49 68.6 127.45 69.87 117.42 70.37 127.33 72.03 117.28 72.14 127.12 74.19 117.07 73.91 126.82 76.33 116.8 75.66 126.45 78.47 116.45 77.39 125.98 80.58 116.04 79.12 125.44 82.68 115.56 80.82 124.81 84.76 115.02 82.51 124.1 86.8 114.4 84.17 123.31 88.82 113.72 85.8 122.44 90.8 112.98 87.41 121.49 92.75 112.17 88.99 120.47 94.66 111.31 90.54 119.37 96.53 110.38 92.05 118.2 98.35 109.39 93.52 116.96 100.13 108.35 94.95 115.65 101.85 107.25 96.35 114.28 103.52 106.1 97.69 112.84 105.14 104.89 98.99 111.34 106.7 103.64 100.25 109.78 108.2 102.34 101.45 108.17 109.64 100.99 102.6 106.49 111.01 99.6 103.7 104.77 112.32 98.16 104.75 103 113.56 96.69 105.73 101.17 114.72 95.18 106.66 99.31 115.82 93.64 107.53 97.4 116.84 92.06 108.33 95.45 117.79 90.45 109.07 93.47 118.66 88.82 109.75 91.45 119.45 87.15 110.36 89.4 120.16 85.47 110.91 87.33 120.79 83.77 111.39 85.23 121.33 82.04 111.8 83.12 121.79 80.31 112.15 80.99 122.17 78.56 112.42 78.84 122.47 76.8 112.63 76.69 122.68 75.03 112.77 74.53 122.8 73.25 112.83 72.36 122.84 71.47 112.83 70.2 122.8 69.7 112.77 68.04 122.68 67.93 112.63 65.88 122.47 66.17 112.42 63.74 122.17 64.42 112.15 61.61 121.79 62.68 111.8 59.49 121.33 60.96 111.39 57.39 120.78 59.25 110.91 55.32 120.16 57.57 110.36 53.27 119.45 55.91 109.75 51.25 118.66 54.27 109.07 49.27 117.79 52.66 108.33 47.32 116.84 51.08 107.52 45.41 115.82 49.54 106.65 43.54 114.72 48.03 105.73 41.72 113.55 46.55 104.74 39.95 112.31 45.12 103.7 38.22 111 43.73 102.6 36.55 109.63 42.38 101.45 34.93 108.19 41.08 100.24 33.37 106.69 39.83 98.99 31.87 105.13 38.62 97.69 30.44 103.51 37.47 96.34 29.06 101.84 36.37 94.95 27.76 100.12 35.33 93.51 26.52 98.34 34.34 92.04 25.35 96.52 33.41 90.53 24.25 94.66 32.55 88.98 23.23 92.75 31.74 87.41 22.28 90.8 31 85.8 21.42 88.82 30.32 84.16 20.63 86.8 29.71 82.5 19.92 84.75 29.16 80.82 19.29 82.68 28.68 79.11 18.74 80.58 28.27 77.39 18.28 78.47 27.93 75.66 17.9 76.33 27.65 73.9 17.61 74.19 27.45 72.14 17.4 72.04 27.31 70.38 17.27 69.88 27.24 68.6 17.23 67.71 27.24 66.82 17.27 65.55 27.31 65.05 17.4 63.39 27.45 63.28 17.61 61.23 27.65 61.52 17.9 59.09 27.93 59.77 18.28 56.95 28.27 58.03 18.74 54.84 28.68 56.31 19.29 52.74 29.16 54.6 19.92 50.67 29.71 52.92 20.63 48.62 30.32 51.25 21.42 46.6 31 49.62 22.29 44.62 31.74 48.01 23.23 42.67 32.55 46.43 24.26 40.76 33.42 44.89 25.35 38.89 34.35 43.37 26.52 37.07 35.33 41.9 27.76 35.29 36.38 40.47 29.07 33.57 37.48 39.08 30.44 31.9 38.63 37.73 31.88 30.28 39.83 36.43 33.38 28.72 41.09 35.17 34.94 27.22 42.39 33.97 36.56 25.78 43.74 32.82 38.23 24.41 45.13 31.72 39.96 23.1 46.56 30.68 41.73 21.87 48.03 29.69 43.55 20.7 49.54 28.76 45.42 19.6 51.09 27.9 47.33 18.58 52.67 27.09 49.27 17.63 54.27 26.35 51.26 16.76 55.91 25.67 53.28 15.97 57.57 25.06 55.32 15.26 59.26 24.51 57.4 14.64 60.96 24.03 59.49 14.09 62.68 23.62 61.61 13.63 64.42 23.27 63.74 13.25 66.17 23 65.88 12.96 67.93 22.79 68.04 12.75 69.7 22.66 70.2 12.62 71.47 22.59 72.36 12.58 73.25 22.59 74.53 12.62 75.03 22.66 76.69 12.75 76.8 22.79 78.84 12.96 78.56 23 80.99 13.25 80.31 23.27 83.12 13.63 82.05 23.62 85.24 14.09 83.77 24.03 87.33 14.64 85.47 24.51 89.41 15.27 87.16 25.06 91.45 15.98 88.82 25.67 93.47 16.77 90.45 26.35 95.46 17.63 92.06 27.09 97.41 18.58 93.64 27.9 99.31 19.61 95.19 28.77 101.18 20.7 96.7 29.69 103 21.87 98.17 30.68 104.78 23.11 99.61 31.72 106.5 24.42 101 32.82 108.18 25.79 102.34 33.98 109.79 27.23 103.65 35.18 111.35 28.73 104.9 36.43 112.85 30.29 106.1 37.74 114.29 31.91 107.26 39.08 115.66 33.58 108.36 40.48 116.97 35.3 109.4 41.91 118.21 37.08 110.38 43.38 119.38 38.9 111.31 44.89 120.47 40.77 112.18 46.44 121.49 42.67 112.98 48.01 122.44 44.62 113.73 49.62 123.31 46.61 114.4 51.26 124.1 48.62 115.02 52.92 124.81 50.67 115.56 54.6 125.44 52.74 116.04 56.31 125.98 54.84 116.46 58.03 126.45 56.95 116.8 59.77 126.82 59.09 117.07 61.52 127.12 61.23 117.28 63.28 127.33 63.39 117.42 65.05 127.45 65.55 117.49 66.82 127.5 67.71"/></svg>