<?xml version="1.0" encoding="UTF-8"?><svg id="a" xmlns="http://www.w3.org/2000/svg" viewBox="0 0 669.26 146.88"><defs><style>.b,.c{fill:#fffaea;}.c{font-family:BNCreekLaneRegular, BN Creek Lane;font-size:8.72px;}</style></defs><rect class="b" x="21.72" y="34.24" width="649.79" height="89.65" rx="44.82" ry="44.82"/><g><text class="c" transform="translate(128.93 -118.19) rotate(55.98)"><tspan x="0" y="0">N</tspan></text><text class="c" transform="translate(134.98 -108.95) rotate(66.82)"><tspan x="0" y="0">U</tspan></text><text class="c" transform="translate(139.1 -99) rotate(77.54)"><tspan x="0" y="0">E</tspan></text><text class="c" transform="translate(141.25 -88.71) rotate(87.56)"><tspan x="0" y="0">V</tspan></text><text class="c" transform="translate(141.64 -79.03) rotate(97.62)"><tspan x="0" y="0">O</tspan></text><text class="c" transform="translate(139.81 -67.71) rotate(106.44)"><tspan x="0" y="0"> </tspan></text><text class="c" transform="translate(138.04 -61.58) rotate(114.89)"><tspan x="0" y="0">C</tspan></text><text class="c" transform="translate(133.5 -52.04) rotate(125.78)"><tspan x="0" y="0">O</tspan></text><text class="c" transform="translate(126.7 -42.87) rotate(136.7)"><tspan x="0" y="0">N</tspan></text><text class="c" transform="translate(118.65 -35.47) rotate(147.49)"><tspan x="0" y="0">T</tspan></text><text class="c" transform="translate(109.47 -29.78) rotate(158.23)"><tspan x="0" y="0">E</tspan></text><text class="c" transform="translate(99.35 -25.87) rotate(168.95)"><tspan x="0" y="0">N</tspan></text><text class="c" transform="translate(88.43 -24.07) rotate(176.66)"><tspan x="0" y="0">I</tspan></text><text class="c" transform="translate(83.79 -23.68) rotate(-175.53)"><tspan x="0" y="0">D</tspan></text><text class="c" transform="translate(72.66 -24.68) rotate(-164.35)"><tspan x="0" y="0">O</tspan></text><text class="c" transform="translate(61.7 -28.08) rotate(-155.47)"><tspan x="0" y="0"> </tspan></text><text class="c" transform="translate(55.89 -30.86) rotate(-149.87)"><tspan x="0" y="0">/</tspan></text><text class="c" transform="translate(51.73 -33.35) rotate(-145.08)"><tspan x="0" y="0">/</tspan></text><text class="c" transform="translate(47.84 -36.18) rotate(-141.25)"><tspan x="0" y="0">/</tspan></text><text class="c" transform="translate(44.13 -39.27) rotate(-134.89)"><tspan x="0" y="0"> </tspan></text><text class="c" transform="translate(39.57 -43.77) rotate(-126.23)"><tspan x="0" y="0">N</tspan></text><text class="c" transform="translate(33.17 -52.76) rotate(-115.38)"><tspan x="0" y="0">U</tspan></text><text class="c" transform="translate(28.67 -62.55) rotate(-104.65)"><tspan x="0" y="0">E</tspan></text><text class="c" transform="translate(26.13 -72.73) rotate(-94.64)"><tspan x="0" y="0">V</tspan></text><text class="c" transform="translate(25.37 -82.38) rotate(-84.6)"><tspan x="0" y="0">O</tspan></text><text class="c" transform="translate(26.76 -93.78) rotate(-75.77)"><tspan x="0" y="0"> </tspan></text><text class="c" transform="translate(28.29 -99.97) rotate(-67.33)"><tspan x="0" y="0">C</tspan></text><text class="c" transform="translate(32.47 -109.7) rotate(-56.39)"><tspan x="0" y="0">O</tspan></text><text class="c" transform="translate(38.89 -119.09) rotate(-45.52)"><tspan x="0" y="0">N</tspan></text><text class="c" transform="translate(46.67 -126.81) rotate(-34.73)"><tspan x="0" y="0">T</tspan></text><text class="c" transform="translate(55.61 -132.85) rotate(-23.98)"><tspan x="0" y="0">E</tspan></text><text class="c" transform="translate(65.57 -137.14) rotate(-13.25)"><tspan x="0" y="0">N</tspan></text><text class="c" transform="translate(76.42 -139.37) rotate(-5.54)"><tspan x="0" y="0">I</tspan></text><text class="c" transform="translate(81.01 -139.93) rotate(2.24)"><tspan x="0" y="0">D</tspan></text><text class="c" transform="translate(92.19 -139.36) rotate(13.43)"><tspan x="0" y="0">O</tspan></text><text class="c" transform="translate(103.29 -136.39) rotate(22.31)"><tspan x="0" y="0"> </tspan></text><text class="c" transform="translate(109.2 -133.83) rotate(27.91)"><tspan x="0" y="0">/</tspan></text><text class="c" transform="translate(113.44 -131.51) rotate(32.7)"><tspan x="0" y="0">/</tspan></text><text class="c" transform="translate(117.48 -128.84) rotate(37.46)"><tspan x="0" y="0">/</tspan></text></g></svg>