<?xml version="1.0" encoding="UTF-8"?><svg id="a" xmlns="http://www.w3.org/2000/svg" viewBox="0 0 115.92 170.24"><defs><style>.b{fill:none;stroke:#2e5d4d;stroke-miterlimit:10;}</style></defs><polygon class="b" points="88.63 85 103.32 82.3 87.21 79.34 102.47 73.38 88.23 73.51 100.54 66.34 85.79 68.78 97.28 59.23 85.18 63.38 93.84 53.96 81.1 60.33 89 48.48 76.84 57.16 82.95 43.52 73.22 53.26 76.94 40.01 69.33 50.3 71.12 37.62 64.25 50.1 64.03 35.86 58.93 49.91 56.23 35.21 53.27 51.32 47.32 36.06 47.44 50.31 40.27 38 42.71 52.74 33.16 41.25 37.31 53.35 27.89 44.69 34.27 57.43 22.41 49.53 31.09 61.7 17.46 55.58 27.2 65.31 13.94 61.59 24.23 69.2 11.55 67.42 24.03 74.29 9.79 74.51 23.84 79.6 9.14 82.3 25.26 85.26 9.99 91.22 24.24 91.09 11.93 98.26 26.67 95.82 15.18 105.37 27.29 101.22 18.63 110.64 31.36 104.27 23.46 116.12 35.63 107.44 29.51 121.08 39.24 111.34 35.52 124.59 43.13 114.31 41.35 126.98 48.22 114.5 48.44 128.74 53.53 114.69 56.23 129.39 59.19 113.28 65.15 128.54 65.02 114.29 72.19 126.6 69.75 111.86 79.31 123.35 75.15 111.25 84.58 119.91 78.2 107.17 90.05 115.07 81.37 102.9 95.01 109.02 85.27 99.29 98.53 103.01 88.24 95.4 100.91 97.18 88.43 90.31 102.67 90.09 88.63 85"/></svg>