<?xml version="1.0" encoding="utf-8"?>
<!-- Generator: Adobe Illustrator 23.0.2, SVG Export Plug-In . SVG Version: 6.00 Build 0)  -->
<svg version="1.1" id="Capa_1" xmlns="http://www.w3.org/2000/svg" xmlns:xlink="http://www.w3.org/1999/xlink" x="0px" y="0px"
	 viewBox="0 0 853.2 590.7" style="enable-background:new 0 0 853.2 590.7;" xml:space="preserve">
<style type="text/css">
	.Vstart{
		    stroke-dashoffset: 3550;
			stroke-dasharray: 1140;
			transition: 0.5s;
			fill: transparent;
			stroke: #28353e;
			stroke: white;
			transition-delay: 3.2s;
			animation: vanim 3s forwards ease-in-out;
	}
	@keyframes vanim{
		0%{stroke-dasharray: 1140;}
		100%{stroke-dasharray: 1500;}
	}
	.Estart{
		    stroke-dashoffset: 3550;
			stroke-dasharray: 1140;
			transition: 0.5s;
			fill: transparent;
			stroke: white;
			transition-delay: 3.8s;
			animation: eanim 3s forwards ease-in-out;
	}
	@keyframes eanim{
		0%{stroke-dasharray: 1140;}
		100%{stroke-dasharray: 1490;}
	}
	.Rstart{
		    stroke-dashoffset: 3550;
			stroke-dasharray: 1140;
			transition: 0.5s;
			fill: transparent;
			stroke: white;
			transition-delay: 3.1s;
			animation: ranim 3s forwards ease-in-out;
	}
	@keyframes ranim{
		0%{stroke-dasharray: 1140;}
		100%{stroke-dasharray: 1520;}
	}
	.Mstart{
		    stroke-dashoffset: 3550;
			stroke-dasharray: 1140;
			transition: 0.5s;
			fill: transparent;
			stroke: white;
			transition-delay: 3.5s;
			animation: manim 3s forwards ease-in-out;
	}
	@keyframes manim{
		0%{stroke-dasharray: 1140;}
		100%{stroke-dasharray: 1520;}
	}
	.MMstart{
		    stroke-dashoffset: 3550;
			stroke-dasharray: 1140;
			transition: 0.5s;
			fill: transparent;
			stroke: white;
			transition-delay: 3.5s;
			animation: mmanim 3s 1s forwards ease-in-out;
	}
	@keyframes mmanim{
		0%{stroke-dasharray: 1140;}
		100%{stroke-dasharray: 1280;}
	}
	.Ustart{
		    stroke-dashoffset: 3550;
			stroke-dasharray: 1140;
			transition: 0.5s;
			fill: transparent;
			stroke: white;
			transition-delay: 3.2s;
			animation: uanim 3s forwards ease-in-out;
	}
	@keyframes uanim{
		0%{stroke-dasharray: 1140;}
		100%{stroke-dasharray: 1550;}
	}
	
	#aceituna{
		transform: translateY(-500px);
		opacity: 0;
		animation: aceituna 2s 4s ease-in-out forwards!important;
	}

	@keyframes aceituna{
		0%{ transform: translateY(-200 %); opacity: 0; }
		50%{ transform: translateY(10%); opacity: 0.5;  }
		78%{ transform: translateY(-5%); opacity: 0.8; }
		100%{ transform: translateY(0%); opacity: 1; }
	}
	
</style>
<g>
	
	<path class="st0 Vstart" d="M130,417.1L93.6,185.2c-0.5-1.5,0.7-3.1,2.3-3.1h40.2c1.1,0,2.1,0.8,2.4,1.9l14.3,162.5c0.5,2.6,4.2,2.6,4.7,0
		l13.7-162.5c0.2-1.1,1.2-2,2.4-2h40.1c1.6,0,2.8,1.6,2.3,3.1L180,417.1c-0.3,1-1.2,1.7-2.3,1.7h-45.4
		C131.2,418.8,130.3,418.1,130,417.1L130,417.1z">
		
	</path>
	<path class="st0 Estart" d="M223.4,416.4V184.5c0-1.3,1.1-2.4,2.4-2.4h91.1c1.3,0,2.4,1.1,2.4,2.4v28.9c0,1.3-1.1,2.4-2.4,2.4h-50.7
		c-1.3,0-2.4,1.1-2.4,2.4v7.9c0,1.3,1.1,2.4,2.4,2.4h45.9c1.3,0,2.4,1.1,2.4,2.4v25.6c0,1.3-1.1,2.4-2.4,2.4h-45.9
		c-1.3,0-2.4,1.1-2.4,2.4v122c0,1.3,1.1,2.4,2.4,2.4H320c1.3,0,2.4,1.1,2.4,2.4v28.4c0,1.3-1.1,2.4-2.4,2.4h-94.2
		C224.4,418.8,223.4,417.7,223.4,416.4L223.4,416.4z"/>
	<path class="st0 Rstart" d="M454.4,380.2c-10.1-0.4-23-4-32.5-18c-6.6-9.6-12.4-22.2-15.7-29.8c-3.6-8.5-8.4-22.2-10.3-26.8
		c-3-7.5-4.4-11-6.9-18.7c-1.8-5.6-5.1-16.2-9.1-17.7H375v144.2c0,3.6-2.9,6.5-6.5,6.5h-27.8c-3.6,0-6.5-2.9-6.5-6.5V188.5
		c0-3.5,2.8-6.4,6.2-6.6c5.8-0.3,11.3-0.5,16.3-0.7c6.9-0.2,13.1-0.4,18.7-0.5c5.6-0.1,10.5-0.2,14.7-0.2c10.2,0,18.9,0.8,26.2,2.4
		c7.3,1.6,13.3,4,17.9,7.3c4.6,3.3,8,7.4,10.2,12.5c2.2,5,3.3,10.9,3.3,17.7s-1,12.5-3.1,17.4c-2,4.9-4.9,8.9-8.6,12.1
		c-2.4,2-5,3.8-7.9,5.2c-2.3,1.1-6.7,3-5,7.3c1.4,3.6,5.5,13.9,7,17.3c5.8,13.7,6.9,17.2,11.5,27c8.6,18.6,5.7,13.4,14,29
		c2.5,4.7,6.5,5.4,7.6,5.4c6.7,0,31.8,0,33.4,0c0.6,0,1.2,0,1.8,0c0.6,0,1.4-0.1,1.4,0.5l0,37.7c0,1-2.1,0.9-3.5,0.9
		C495,380,456.4,380.3,454.4,380.2L454.4,380.2z M390.6,242.5c2.7,0,5-0.3,6.9-1c1.9-0.6,3.5-1.7,4.7-3.1c1.2-1.4,2.1-3.2,2.7-5.3
		c0.6-2.1,0.9-4.6,0.9-7.6c0-3.3-0.4-5.9-1.3-8c-0.9-2-2.4-3.6-4.6-4.6c-2.2-1-5.2-1.5-9-1.5h-3.7c-1,0-2.1,0-3.2,0.1
		c-1,0.1-2.3,0.1-3.8,0.3c-1.5,0.1-3.3,0.2-5.4,0.4v29.7c1.3,0.1,2.4,0.2,3.4,0.3c1,0.1,2,0.1,3.1,0.2c1,0.1,2.3,0.1,3.7,0.1
		L390.6,242.5L390.6,242.5z"/>
	<path class="st0 Mstart" d="M462.6,329.3V184.5c0-1.3,1.1-2.4,2.4-2.4h38.7c1,0,1.8,0.6,2.2,1.5l19.5,47.2c0.8,2,3.6,2,4.4,0l20.1-47.2
		c0.4-0.9,1.2-1.4,2.2-1.4h36.6c1.3,0,2.4,1.1,2.4,2.4v231.3c0,1.3-1.1,2.4-2.4,2.4h-32.4c-1.3,0-2.4-1.1-2.4-2.4V252.9
		c0-2.6-3.6-3.3-4.6-0.9l-12.7,31.5c-0.4,0.9-1.2,1.5-2.2,1.5h-15.9c-1,0-1.9-0.6-2.2-1.5l-11.8-30.2c-1-2.5-4.6-1.8-4.6,0.9v75.2
		c0,1.3-1.1,2.4-2.4,2.4H465C463.7,331.7,462.6,330.6,462.6,329.3L462.6,329.3z"/>
	<path class="st0 Ustart" d="M605.6,376.2V184.5c0-1.3,1.1-2.4,2.4-2.4h35.4c1.3,0,2.4,1.1,2.4,2.4v192.1c0,1.4,0.2,2.7,0.6,3.9
		c0.4,1.2,1,2.1,1.8,2.9c0.8,0.8,1.8,1.5,3,2.1c1.2,0.6,2.6,1.1,4.3,1.4c1.7,0.3,3.5,0.4,5.3,0.4c2.2,0,4.2-0.2,5.8-0.5
		c1.6-0.4,3-0.9,4.1-1.5c1.1-0.6,2-1.4,2.8-2.2c0.8-0.8,1.3-1.8,1.7-2.9c0.3-1.1,0.5-2.3,0.5-3.6V184.5c0-1.3,1.1-2.4,2.4-2.4H714
		c1.3,0,2.4,1.1,2.4,2.4v191.7c0,6-0.7,11.4-2.2,16.1s-3.6,8.9-6.4,12.4c-2.8,3.5-6.4,6.3-10.8,8.5c-4.4,2.2-9.6,3.9-15.7,5
		s-12.9,1.7-20.5,1.7s-14.2-0.6-20.2-1.7c-6-1.1-11.2-2.8-15.5-5s-8-5.1-10.9-8.5s-5-7.6-6.4-12.4
		C606.3,387.6,605.6,382.2,605.6,376.2z M647.2,171l10.9-29.3c0.3-0.9,1.2-1.6,2.2-1.6h32.6c1.9,0,3,2.1,2,3.7l-18.7,29.3
		c-0.4,0.7-1.2,1.1-2,1.1h-24.7C647.8,174.2,646.6,172.5,647.2,171z"/>
	<path class="st0 MMstart" d="M499.8,391.6v23.9c0,1.3-1.1,2.4-2.4,2.4H465c-1.3,0-2.4-1.1-2.4-2.4v-23.9c0-1.6,1.3-3,3-3h31.3
		C498.5,388.7,499.8,390,499.8,391.6z"/>
</g>
<g id="aceituna">
	<path class="st0" d="M782.1,202.7c1.7-0.8,2.5-2.1,2.6-3.9c0.2-3.7-1-6.8-3.6-9.4c-1.4-1.4-3.1-1.2-4.3,0.4
		c-0.5,0.7-0.5,1.2,0.2,1.8c1.1,0.9,2.2,1.9,3,3.2C781.5,197.1,782,199.5,782.1,202.7L782.1,202.7z"/>
	<path class="st0" d="M741.8,203.7c-11,30.6,35.1,29.3,50.4,2.3C806.8,174.1,750.6,170.9,741.8,203.7z M786.2,202.7
		c-1.8,3.8-5.3,4.9-8.9,2.8c-4.2-2.5-8.2-10.7-4.7-16.7c1-1.8,2.5-3.1,4.6-3.4c1.8-0.3,3.1,0.3,4.9,1.7c1.5,1.1,2.5,2.3,3.4,3.7
		c0.8,1.2,0.9,2.3,1.1,3.7C787.2,197.5,787.4,200.1,786.2,202.7L786.2,202.7z"/>
</g>

</svg>
