<?xml version="1.0" encoding="UTF-8"?><svg id="Capa_1" xmlns="http://www.w3.org/2000/svg" viewBox="0 0 853.2 590.68"><defs><style>.cls-1{fill:#28353e;}</style></defs><g><path class="cls-1" d="M130.01,417.06l-36.43-231.87c-.47-1.54,.67-3.09,2.28-3.09h40.24c1.15,0,2.13,.81,2.35,1.94l14.26,162.54c.5,2.6,4.22,2.58,4.7-.02l13.66-162.5c.21-1.13,1.2-1.96,2.35-1.96h40.07c1.6,0,2.75,1.55,2.29,3.08l-35.76,231.87c-.31,1.01-1.23,1.7-2.29,1.7h-45.43c-1.05,0-1.97-.68-2.28-1.68Z"/><path class="cls-1" d="M223.37,416.36V184.49c0-1.32,1.07-2.39,2.39-2.39h91.05c1.32,0,2.39,1.07,2.39,2.39v28.92c0,1.32-1.07,2.39-2.39,2.39h-50.68c-1.32,0-2.39,1.07-2.39,2.39v7.86c0,1.32,1.07,2.39,2.39,2.39h45.94c1.32,0,2.39,1.07,2.39,2.39v25.58c0,1.32-1.07,2.39-2.39,2.39h-45.94c-1.32,0-2.39,1.07-2.39,2.39v122c0,1.32,1.07,2.39,2.39,2.39h53.84c1.32,0,2.39,1.07,2.39,2.39v28.39c0,1.32-1.07,2.39-2.39,2.39h-94.21c-1.32,0-2.39-1.07-2.39-2.39Z"/><path class="cls-1" d="M454.38,380.23c-10.07-.41-22.98-4-32.53-18.05-6.56-9.65-12.43-22.18-15.68-29.84-3.6-8.49-8.41-22.17-10.28-26.8-3.03-7.5-4.38-10.96-6.91-18.71-1.83-5.62-5.06-16.18-9.06-17.68h-4.91v144.24c0,3.62-2.93,6.55-6.55,6.55h-27.79c-3.62,0-6.55-2.93-6.55-6.55V188.48c0-3.48,2.76-6.37,6.24-6.55,5.81-.3,11.25-.54,16.31-.71,6.85-.23,13.08-.41,18.69-.53,5.62-.12,10.53-.18,14.74-.18,10.18,0,18.92,.79,26.24,2.37,7.31,1.58,13.28,4.01,17.9,7.28,4.62,3.28,8.01,7.43,10.18,12.46,2.16,5.03,3.25,10.94,3.25,17.72s-1.03,12.46-3.07,17.37c-2.05,4.92-4.91,8.95-8.6,12.11-2.38,2.04-5.01,3.76-7.9,5.17-2.3,1.12-6.68,3.03-5.01,7.26,1.44,3.65,5.51,13.85,6.97,17.31,5.78,13.73,6.94,17.21,11.46,26.97,8.6,18.57,5.71,13.43,14.05,28.99,2.53,4.72,6.46,5.39,7.62,5.39,6.74,0,31.81-.01,33.42-.01,.59,0,1.16,0,1.77-.01,.65-.02,1.39-.08,1.39,.51l.02,37.66c0,1.04-2.12,.86-3.45,.89-1.36,.03-39.97,.34-41.96,.26Zm-63.76-137.76c2.69,0,5-.32,6.93-.97,1.93-.64,3.51-1.67,4.74-3.07,1.23-1.4,2.13-3.16,2.72-5.27,.59-2.1,.88-4.62,.88-7.55,0-3.28-.44-5.94-1.32-7.99-.88-2.04-2.4-3.57-4.56-4.56-2.17-.99-5.18-1.49-9.04-1.49h-3.68c-1.05,0-2.11,.03-3.16,.09-1.05,.06-2.31,.15-3.77,.26-1.47,.12-3.25,.24-5.35,.35v29.66c1.29,.12,2.43,.2,3.42,.26,.99,.06,2.02,.12,3.07,.18,1.05,.06,2.28,.09,3.68,.09h5.44Z"/><path class="cls-1" d="M462.58,329.28V184.49c0-1.32,1.07-2.39,2.39-2.39h38.66c.97,0,1.84,.58,2.21,1.48l19.51,47.15c.81,1.96,3.57,1.97,4.4,.02l20.14-47.2c.38-.88,1.24-1.45,2.2-1.45h36.57c1.32,0,2.39,1.07,2.39,2.39v231.31c0,1.32-1.07,2.39-2.39,2.39h-32.43c-1.32,0-2.39-1.07-2.39-2.39V252.86c0-2.63-3.62-3.33-4.6-.89l-12.69,31.48c-.36,.9-1.24,1.5-2.22,1.5h-15.89c-.98,0-1.87-.6-2.22-1.52l-11.81-30.21c-.96-2.46-4.61-1.77-4.61,.87v75.19c0,1.32-1.07,2.39-2.39,2.39h-32.43c-1.32,0-2.39-1.07-2.39-2.39Z"/><path class="cls-1" d="M605.61,376.24V184.49c0-1.32,1.07-2.39,2.39-2.39h35.41c1.32,0,2.39,1.07,2.39,2.39v192.1c0,1.4,.2,2.69,.61,3.86,.41,1.17,1.02,2.14,1.84,2.9,.82,.76,1.81,1.46,2.98,2.11,1.17,.64,2.6,1.11,4.3,1.4,1.69,.29,3.48,.44,5.35,.44,2.22,0,4.15-.18,5.79-.53,1.64-.35,3.01-.85,4.13-1.49,1.11-.64,2.04-1.37,2.81-2.19,.76-.82,1.32-1.78,1.67-2.89,.35-1.11,.53-2.31,.53-3.6V184.49c0-1.32,1.07-2.39,2.39-2.39h35.76c1.32,0,2.39,1.07,2.39,2.39v191.75c0,5.97-.73,11.35-2.19,16.15-1.46,4.8-3.6,8.92-6.41,12.37-2.81,3.45-6.41,6.29-10.79,8.51-4.39,2.22-9.63,3.89-15.71,5-6.08,1.11-12.93,1.67-20.53,1.67s-14.22-.56-20.18-1.67c-5.97-1.11-11.15-2.78-15.53-5s-8.01-5.06-10.88-8.51c-2.87-3.45-5-7.57-6.41-12.37-1.4-4.8-2.11-10.18-2.11-16.15Zm41.56-205.26l10.86-29.27c.35-.94,1.24-1.56,2.24-1.56h32.59c1.89,0,3.03,2.09,2.01,3.68l-18.71,29.27c-.44,.69-1.2,1.1-2.01,1.1h-24.74c-1.66,0-2.82-1.66-2.24-3.22Z"/><path class="cls-1" d="M499.78,391.61v23.87c0,1.32-1.07,2.39-2.39,2.39h-32.43c-1.32,0-2.39-1.07-2.39-2.39v-23.86c0-1.63,1.32-2.95,2.95-2.95h31.31c1.63,0,2.95,1.31,2.95,2.94Z"/></g><g><path class="cls-1" d="M782.11,202.68c1.65-.77,2.51-2.12,2.62-3.88,.23-3.66-1-6.83-3.59-9.41-1.39-1.39-3.1-1.17-4.29,.39-.53,.7-.47,1.17,.24,1.79,1.09,.94,2.24,1.94,2.96,3.16,1.42,2.39,1.94,4.75,2.06,7.96Z"/><path class="cls-1" d="M741.83,203.69c-10.95,30.58,35.13,29.28,50.41,2.25,14.56-31.84-41.65-35.09-50.41-2.25Zm44.37-1.04c-1.76,3.79-5.29,4.86-8.89,2.76-4.22-2.46-8.21-10.74-4.7-16.7,1.05-1.79,2.48-3.12,4.6-3.45,1.78-.27,3.08,.25,4.89,1.66,1.46,1.07,2.49,2.33,3.39,3.73,.8,1.23,.86,2.34,1.1,3.66,.57,3.19,.79,5.81-.38,8.34Z"/></g></svg>